<?xml version="1.0" encoding="UTF-8"?>
<svg xmlns="http://www.w3.org/2000/svg" xmlns:xlink="http://www.w3.org/1999/xlink" width="500px" height="500px" viewBox="0 0 500 500" version="1.1">
<g id="surface1">
<path style=" stroke:none;fill-rule:nonzero;fill:rgb(36.862745%,43.137255%,49.803922%);fill-opacity:1;" d="M 184.546875 124.910156 C 185.085938 124.910156 185.621094 124.917969 186.15625 124.925781 C 186.429688 124.925781 186.703125 124.925781 186.984375 124.925781 C 189.007812 124.945312 189.007812 124.945312 189.453125 125.390625 C 189.5 126.179688 189.523438 126.972656 189.535156 127.765625 C 189.542969 128.273438 189.550781 128.78125 189.558594 129.304688 C 189.5625 129.863281 189.570312 130.425781 189.578125 130.984375 C 189.585938 131.550781 189.59375 132.121094 189.601562 132.6875 C 189.621094 134.1875 189.640625 135.6875 189.660156 137.1875 C 189.683594 138.984375 189.710938 140.78125 189.734375 142.582031 C 189.773438 145.3125 189.808594 148.046875 189.84375 150.78125 C 194.484375 150.910156 199.125 151.039062 203.90625 151.171875 C 203.898438 149.347656 203.886719 147.523438 203.878906 145.644531 C 203.875 144.492188 203.871094 143.339844 203.867188 142.183594 C 203.863281 140.351562 203.859375 138.519531 203.847656 136.6875 C 203.839844 135.210938 203.835938 133.734375 203.832031 132.257812 C 203.832031 131.695312 203.828125 131.128906 203.824219 130.566406 C 203.816406 129.777344 203.816406 128.988281 203.816406 128.199219 C 203.816406 127.75 203.8125 127.300781 203.8125 126.839844 C 203.90625 125.78125 203.90625 125.78125 204.6875 125 C 205.945312 124.910156 205.945312 124.910156 207.445312 124.925781 C 208.191406 124.929688 208.191406 124.929688 208.949219 124.933594 C 210.15625 125 210.15625 125 210.546875 125.390625 C 210.59375 126.179688 210.617188 126.972656 210.628906 127.765625 C 210.636719 128.273438 210.644531 128.78125 210.652344 129.304688 C 210.65625 129.863281 210.664062 130.425781 210.671875 130.984375 C 210.679688 131.550781 210.6875 132.121094 210.695312 132.6875 C 210.714844 134.1875 210.734375 135.6875 210.753906 137.1875 C 210.777344 138.984375 210.804688 140.78125 210.828125 142.582031 C 210.867188 145.3125 210.902344 148.046875 210.9375 150.78125 C 215.578125 150.910156 220.21875 151.039062 225 151.171875 C 224.992188 149.347656 224.980469 147.523438 224.972656 145.644531 C 224.96875 144.492188 224.964844 143.339844 224.960938 142.183594 C 224.957031 140.351562 224.953125 138.519531 224.941406 136.6875 C 224.933594 135.210938 224.929688 133.734375 224.925781 132.257812 C 224.925781 131.695312 224.921875 131.128906 224.917969 130.566406 C 224.910156 129.777344 224.910156 128.988281 224.910156 128.199219 C 224.910156 127.75 224.90625 127.300781 224.90625 126.839844 C 225 125.78125 225 125.78125 225.78125 125 C 227.039062 124.910156 227.039062 124.910156 228.539062 124.925781 C 229.285156 124.929688 229.285156 124.929688 230.042969 124.933594 C 231.25 125 231.25 125 231.640625 125.390625 C 231.6875 126.179688 231.710938 126.972656 231.722656 127.765625 C 231.730469 128.273438 231.738281 128.78125 231.746094 129.304688 C 231.75 129.863281 231.757812 130.425781 231.765625 130.984375 C 231.773438 131.550781 231.78125 132.121094 231.789062 132.6875 C 231.808594 134.1875 231.828125 135.6875 231.847656 137.1875 C 231.871094 138.984375 231.898438 140.78125 231.921875 142.582031 C 231.960938 145.3125 231.996094 148.046875 232.03125 150.78125 C 236.671875 150.910156 241.3125 151.039062 246.09375 151.171875 C 246.085938 149.347656 246.074219 147.523438 246.066406 145.644531 C 246.0625 144.492188 246.058594 143.339844 246.054688 142.183594 C 246.050781 140.351562 246.046875 138.519531 246.035156 136.6875 C 246.027344 135.210938 246.023438 133.734375 246.019531 132.257812 C 246.019531 131.695312 246.015625 131.128906 246.011719 130.566406 C 246.003906 129.777344 246.003906 128.988281 246.003906 128.199219 C 246.003906 127.75 246 127.300781 246 126.839844 C 246.09375 125.78125 246.09375 125.78125 246.875 125 C 247.875 124.933594 248.828125 124.910156 249.828125 124.925781 C 250.101562 124.925781 250.375 124.925781 250.65625 124.925781 C 252.679688 124.945312 252.679688 124.945312 253.125 125.390625 C 253.171875 126.179688 253.195312 126.972656 253.207031 127.765625 C 253.214844 128.273438 253.222656 128.78125 253.230469 129.304688 C 253.234375 129.863281 253.242188 130.425781 253.25 130.984375 C 253.257812 131.550781 253.265625 132.121094 253.273438 132.6875 C 253.292969 134.1875 253.3125 135.6875 253.332031 137.1875 C 253.355469 138.984375 253.382812 140.78125 253.40625 142.582031 C 253.445312 145.3125 253.480469 148.046875 253.515625 150.78125 C 258.15625 150.910156 262.796875 151.039062 267.578125 151.171875 C 267.570312 149.347656 267.558594 147.523438 267.550781 145.644531 C 267.546875 144.492188 267.542969 143.339844 267.539062 142.183594 C 267.535156 140.351562 267.53125 138.519531 267.519531 136.6875 C 267.511719 135.210938 267.507812 133.734375 267.503906 132.257812 C 267.503906 131.695312 267.5 131.128906 267.496094 130.566406 C 267.488281 129.777344 267.488281 128.988281 267.488281 128.199219 C 267.488281 127.75 267.484375 127.300781 267.484375 126.839844 C 267.578125 125.78125 267.578125 125.78125 268.359375 125 C 269.617188 124.910156 269.617188 124.910156 271.117188 124.925781 C 271.863281 124.929688 271.863281 124.929688 272.621094 124.933594 C 273.828125 125 273.828125 125 274.21875 125.390625 C 274.265625 126.179688 274.289062 126.972656 274.300781 127.765625 C 274.308594 128.273438 274.316406 128.78125 274.324219 129.304688 C 274.328125 129.863281 274.335938 130.425781 274.34375 130.984375 C 274.351562 131.550781 274.359375 132.121094 274.367188 132.6875 C 274.386719 134.1875 274.40625 135.6875 274.425781 137.1875 C 274.449219 138.984375 274.476562 140.78125 274.5 142.582031 C 274.539062 145.3125 274.574219 148.046875 274.609375 150.78125 C 279.25 150.910156 283.890625 151.039062 288.671875 151.171875 C 288.664062 149.347656 288.652344 147.523438 288.644531 145.644531 C 288.640625 144.492188 288.636719 143.339844 288.632812 142.183594 C 288.628906 140.351562 288.625 138.519531 288.613281 136.6875 C 288.605469 135.210938 288.601562 133.734375 288.597656 132.257812 C 288.597656 131.695312 288.59375 131.128906 288.589844 130.566406 C 288.582031 129.777344 288.582031 128.988281 288.582031 128.199219 C 288.582031 127.75 288.578125 127.300781 288.578125 126.839844 C 288.671875 125.78125 288.671875 125.78125 289.453125 125 C 290.710938 124.910156 290.710938 124.910156 292.210938 124.925781 C 292.957031 124.929688 292.957031 124.929688 293.714844 124.933594 C 294.921875 125 294.921875 125 295.3125 125.390625 C 295.359375 126.179688 295.382812 126.972656 295.394531 127.765625 C 295.402344 128.273438 295.410156 128.78125 295.417969 129.304688 C 295.421875 129.863281 295.429688 130.425781 295.4375 130.984375 C 295.445312 131.550781 295.453125 132.121094 295.460938 132.6875 C 295.480469 134.1875 295.5 135.6875 295.519531 137.1875 C 295.542969 138.984375 295.570312 140.78125 295.59375 142.582031 C 295.632812 145.3125 295.667969 148.046875 295.703125 150.78125 C 300.34375 150.910156 304.984375 151.039062 309.765625 151.171875 C 309.757812 149.347656 309.746094 147.523438 309.738281 145.644531 C 309.734375 144.492188 309.730469 143.339844 309.726562 142.183594 C 309.722656 140.351562 309.71875 138.519531 309.707031 136.6875 C 309.699219 135.210938 309.695312 133.734375 309.691406 132.257812 C 309.691406 131.695312 309.6875 131.128906 309.683594 130.566406 C 309.675781 129.777344 309.675781 128.988281 309.675781 128.199219 C 309.675781 127.75 309.671875 127.300781 309.671875 126.839844 C 309.765625 125.78125 309.765625 125.78125 310.546875 125 C 311.804688 124.910156 311.804688 124.910156 313.304688 124.925781 C 314.050781 124.929688 314.050781 124.929688 314.808594 124.933594 C 316.015625 125 316.015625 125 316.40625 125.390625 C 316.453125 126.179688 316.476562 126.972656 316.488281 127.765625 C 316.496094 128.273438 316.503906 128.78125 316.511719 129.304688 C 316.515625 129.863281 316.523438 130.425781 316.53125 130.984375 C 316.539062 131.550781 316.546875 132.121094 316.554688 132.6875 C 316.574219 134.1875 316.59375 135.6875 316.613281 137.1875 C 316.632812 138.714844 316.65625 140.246094 316.675781 141.773438 C 316.71875 144.777344 316.757812 147.777344 316.796875 150.78125 C 318.246094 151.265625 319.582031 151.210938 321.09375 151.195312 C 321.402344 151.195312 321.710938 151.191406 322.03125 151.191406 C 323.347656 151.183594 324.667969 151.175781 325.988281 151.164062 C 339.03125 151.066406 339.03125 151.066406 343.335938 155.199219 C 346.746094 158.917969 347.78125 162.078125 347.734375 167.085938 C 347.730469 167.746094 347.730469 167.746094 347.730469 168.417969 C 347.726562 169.8125 347.714844 171.210938 347.703125 172.609375 C 347.699219 173.554688 347.699219 174.503906 347.695312 175.453125 C 347.6875 177.777344 347.671875 180.097656 347.65625 182.421875 C 347.984375 182.425781 348.308594 182.429688 348.648438 182.433594 C 351.722656 182.472656 354.796875 182.511719 357.875 182.554688 C 359.453125 182.574219 361.035156 182.597656 362.617188 182.617188 C 364.140625 182.632812 365.667969 182.65625 367.191406 182.675781 C 367.773438 182.683594 368.355469 182.691406 368.941406 182.699219 C 369.753906 182.707031 370.566406 182.71875 371.382812 182.730469 C 371.84375 182.738281 372.308594 182.746094 372.789062 182.75 C 373.828125 182.8125 373.828125 182.8125 374.21875 183.203125 C 374.246094 184.257812 374.253906 185.300781 374.242188 186.351562 C 374.242188 186.648438 374.238281 186.945312 374.238281 187.25 C 374.234375 187.984375 374.226562 188.71875 374.21875 189.453125 C 373.898438 189.457031 373.574219 189.460938 373.242188 189.464844 C 370.214844 189.503906 367.183594 189.542969 364.15625 189.585938 C 362.597656 189.605469 361.039062 189.628906 359.480469 189.648438 C 357.980469 189.664062 356.476562 189.6875 354.976562 189.707031 C 354.402344 189.714844 353.828125 189.722656 353.253906 189.730469 C 352.453125 189.738281 351.648438 189.75 350.847656 189.761719 C 350.390625 189.769531 349.933594 189.777344 349.464844 189.78125 C 348.464844 189.726562 348.464844 189.726562 348.046875 190.234375 C 348.011719 191.21875 348 192.191406 348.007812 193.179688 C 348.007812 193.472656 348.011719 193.765625 348.011719 194.070312 C 348.011719 195.011719 348.015625 195.957031 348.023438 196.898438 C 348.023438 197.539062 348.027344 198.175781 348.027344 198.8125 C 348.03125 200.382812 348.039062 201.949219 348.046875 203.515625 C 348.367188 203.519531 348.691406 203.523438 349.023438 203.527344 C 352.050781 203.566406 355.082031 203.605469 358.109375 203.648438 C 359.667969 203.667969 361.226562 203.691406 362.785156 203.710938 C 364.285156 203.726562 365.789062 203.75 367.289062 203.769531 C 367.863281 203.777344 368.4375 203.785156 369.011719 203.792969 C 369.8125 203.800781 370.617188 203.8125 371.417969 203.824219 C 371.875 203.832031 372.332031 203.839844 372.800781 203.84375 C 373.828125 203.90625 373.828125 203.90625 374.21875 204.296875 C 374.246094 205.351562 374.253906 206.394531 374.242188 207.445312 C 374.242188 207.742188 374.238281 208.039062 374.238281 208.34375 C 374.234375 209.078125 374.226562 209.8125 374.21875 210.546875 C 373.898438 210.550781 373.574219 210.554688 373.242188 210.558594 C 370.214844 210.597656 367.183594 210.636719 364.15625 210.679688 C 362.597656 210.699219 361.039062 210.722656 359.480469 210.742188 C 357.980469 210.757812 356.476562 210.78125 354.976562 210.800781 C 354.402344 210.808594 353.828125 210.816406 353.253906 210.824219 C 352.453125 210.832031 351.648438 210.84375 350.847656 210.855469 C 350.390625 210.863281 349.933594 210.871094 349.464844 210.875 C 348.464844 210.820312 348.464844 210.820312 348.046875 211.328125 C 348.011719 212.3125 348 213.285156 348.007812 214.273438 C 348.007812 214.566406 348.011719 214.859375 348.011719 215.164062 C 348.011719 216.105469 348.015625 217.050781 348.023438 217.992188 C 348.023438 218.632812 348.027344 219.269531 348.027344 219.90625 C 348.03125 221.476562 348.039062 223.042969 348.046875 224.609375 C 348.367188 224.613281 348.691406 224.617188 349.023438 224.621094 C 352.050781 224.660156 355.082031 224.699219 358.109375 224.742188 C 359.667969 224.761719 361.226562 224.785156 362.785156 224.804688 C 364.285156 224.820312 365.789062 224.84375 367.289062 224.863281 C 367.863281 224.871094 368.4375 224.878906 369.011719 224.886719 C 369.8125 224.894531 370.617188 224.90625 371.417969 224.917969 C 371.875 224.925781 372.332031 224.933594 372.800781 224.9375 C 373.828125 225 373.828125 225 374.21875 225.390625 C 374.21875 227.453125 374.21875 229.515625 374.21875 231.640625 C 361.265625 231.835938 361.265625 231.835938 348.046875 232.03125 C 348.046875 236.542969 348.046875 241.054688 348.046875 245.703125 C 349.902344 245.726562 351.761719 245.75 353.671875 245.773438 C 354.847656 245.789062 356.019531 245.804688 357.191406 245.824219 C 359.054688 245.847656 360.917969 245.875 362.785156 245.898438 C 364.285156 245.914062 365.789062 245.9375 367.289062 245.957031 C 367.863281 245.964844 368.4375 245.972656 369.011719 245.980469 C 369.8125 245.988281 370.617188 246 371.417969 246.011719 C 372.101562 246.023438 372.101562 246.023438 372.800781 246.03125 C 373.828125 246.09375 373.828125 246.09375 374.21875 246.484375 C 374.246094 247.601562 374.253906 248.710938 374.242188 249.828125 C 374.242188 250.144531 374.238281 250.460938 374.238281 250.785156 C 374.234375 251.5625 374.226562 252.34375 374.21875 253.125 C 373.898438 253.128906 373.574219 253.132812 373.242188 253.136719 C 370.214844 253.175781 367.183594 253.214844 364.15625 253.257812 C 362.597656 253.277344 361.039062 253.300781 359.480469 253.320312 C 357.980469 253.335938 356.476562 253.359375 354.976562 253.378906 C 354.402344 253.386719 353.828125 253.394531 353.253906 253.402344 C 352.453125 253.410156 351.648438 253.421875 350.847656 253.433594 C 350.164062 253.445312 350.164062 253.445312 349.464844 253.453125 C 348.464844 253.398438 348.464844 253.398438 348.046875 253.90625 C 347.984375 254.890625 347.945312 255.863281 347.921875 256.851562 C 347.914062 257.144531 347.90625 257.4375 347.898438 257.742188 C 347.875 258.683594 347.851562 259.628906 347.828125 260.570312 C 347.808594 261.210938 347.792969 261.847656 347.777344 262.484375 C 347.734375 264.054688 347.695312 265.621094 347.65625 267.1875 C 347.984375 267.191406 348.308594 267.195312 348.648438 267.199219 C 351.722656 267.238281 354.796875 267.277344 357.875 267.320312 C 359.453125 267.339844 361.035156 267.363281 362.617188 267.382812 C 364.140625 267.398438 365.667969 267.421875 367.191406 267.441406 C 367.773438 267.449219 368.355469 267.457031 368.941406 267.464844 C 369.753906 267.472656 370.566406 267.484375 371.382812 267.496094 C 372.078125 267.507812 372.078125 267.507812 372.789062 267.515625 C 373.828125 267.578125 373.828125 267.578125 374.21875 267.96875 C 374.246094 269.023438 374.253906 270.066406 374.242188 271.117188 C 374.242188 271.414062 374.238281 271.710938 374.238281 272.015625 C 374.234375 272.75 374.226562 273.484375 374.21875 274.21875 C 373.898438 274.222656 373.574219 274.226562 373.242188 274.230469 C 370.214844 274.269531 367.183594 274.308594 364.15625 274.351562 C 362.597656 274.371094 361.039062 274.394531 359.480469 274.414062 C 357.980469 274.429688 356.476562 274.453125 354.976562 274.472656 C 354.402344 274.480469 353.828125 274.488281 353.253906 274.496094 C 352.453125 274.503906 351.648438 274.515625 350.847656 274.527344 C 350.164062 274.539062 350.164062 274.539062 349.464844 274.546875 C 348.464844 274.492188 348.464844 274.492188 348.046875 275 C 348.011719 275.984375 348 276.957031 348.007812 277.945312 C 348.007812 278.238281 348.011719 278.53125 348.011719 278.835938 C 348.011719 279.777344 348.015625 280.722656 348.023438 281.664062 C 348.023438 282.304688 348.027344 282.941406 348.027344 283.578125 C 348.03125 285.148438 348.039062 286.714844 348.046875 288.28125 C 348.367188 288.285156 348.691406 288.289062 349.023438 288.292969 C 352.050781 288.332031 355.082031 288.371094 358.109375 288.414062 C 359.667969 288.433594 361.226562 288.457031 362.785156 288.476562 C 364.285156 288.492188 365.789062 288.515625 367.289062 288.535156 C 367.863281 288.542969 368.4375 288.550781 369.011719 288.558594 C 369.8125 288.566406 370.617188 288.578125 371.417969 288.589844 C 372.101562 288.601562 372.101562 288.601562 372.800781 288.609375 C 373.828125 288.671875 373.828125 288.671875 374.21875 289.0625 C 374.246094 290.117188 374.253906 291.160156 374.242188 292.210938 C 374.242188 292.507812 374.238281 292.804688 374.238281 293.109375 C 374.234375 293.84375 374.226562 294.578125 374.21875 295.3125 C 373.898438 295.316406 373.574219 295.320312 373.242188 295.324219 C 370.214844 295.363281 367.183594 295.402344 364.15625 295.445312 C 362.597656 295.464844 361.039062 295.488281 359.480469 295.507812 C 357.980469 295.523438 356.476562 295.546875 354.976562 295.566406 C 354.402344 295.574219 353.828125 295.582031 353.253906 295.589844 C 352.453125 295.597656 351.648438 295.609375 350.847656 295.621094 C 350.164062 295.632812 350.164062 295.632812 349.464844 295.640625 C 348.464844 295.585938 348.464844 295.585938 348.046875 296.09375 C 348.011719 297.078125 348 298.050781 348.007812 299.039062 C 348.007812 299.332031 348.011719 299.625 348.011719 299.929688 C 348.011719 300.871094 348.015625 301.816406 348.023438 302.757812 C 348.023438 303.398438 348.027344 304.035156 348.027344 304.671875 C 348.03125 306.242188 348.039062 307.808594 348.046875 309.375 C 348.367188 309.378906 348.691406 309.382812 349.023438 309.386719 C 352.050781 309.425781 355.082031 309.464844 358.109375 309.507812 C 359.667969 309.527344 361.226562 309.550781 362.785156 309.570312 C 364.285156 309.585938 365.789062 309.609375 367.289062 309.628906 C 367.863281 309.636719 368.4375 309.644531 369.011719 309.652344 C 369.8125 309.660156 370.617188 309.671875 371.417969 309.683594 C 372.101562 309.695312 372.101562 309.695312 372.800781 309.703125 C 373.828125 309.765625 373.828125 309.765625 374.21875 310.15625 C 374.21875 312.347656 374.21875 314.539062 374.21875 316.796875 C 365.582031 316.796875 356.945312 316.796875 348.046875 316.796875 C 347.980469 323.453125 347.980469 323.453125 347.929688 330.105469 C 347.917969 330.949219 347.90625 331.789062 347.894531 332.628906 C 347.894531 333.269531 347.894531 333.269531 347.894531 333.929688 C 347.804688 338.742188 346.003906 341.496094 342.683594 344.816406 C 337.925781 349.226562 330.75 348.097656 324.730469 348.070312 C 322.113281 348.0625 319.496094 348.054688 316.796875 348.046875 C 316.667969 356.683594 316.539062 365.320312 316.40625 374.21875 C 314.34375 374.21875 312.28125 374.21875 310.15625 374.21875 C 309.449219 373.511719 309.699219 372.40625 309.683594 371.453125 C 309.675781 370.945312 309.667969 370.4375 309.660156 369.914062 C 309.65625 369.355469 309.648438 368.792969 309.640625 368.234375 C 309.632812 367.667969 309.625 367.097656 309.617188 366.53125 C 309.597656 365.03125 309.578125 363.53125 309.558594 362.03125 C 309.539062 360.503906 309.515625 358.972656 309.496094 357.445312 C 309.453125 354.441406 309.414062 351.441406 309.375 348.4375 C 307.492188 348.429688 305.605469 348.421875 303.722656 348.417969 C 303.082031 348.414062 302.4375 348.410156 301.796875 348.40625 C 300.878906 348.402344 299.957031 348.402344 299.039062 348.398438 C 298.75 348.398438 298.460938 348.394531 298.164062 348.394531 C 297.472656 348.394531 296.785156 348.414062 296.09375 348.4375 C 295.386719 349.144531 295.636719 350.25 295.621094 351.203125 C 295.613281 351.710938 295.605469 352.21875 295.597656 352.742188 C 295.59375 353.300781 295.585938 353.863281 295.578125 354.421875 C 295.570312 354.988281 295.5625 355.558594 295.554688 356.125 C 295.535156 357.625 295.515625 359.125 295.496094 360.625 C 295.476562 362.152344 295.453125 363.683594 295.433594 365.210938 C 295.390625 368.214844 295.351562 371.214844 295.3125 374.21875 C 294.277344 374.230469 293.246094 374.238281 292.210938 374.242188 C 291.917969 374.246094 291.621094 374.25 291.320312 374.253906 C 290.566406 374.257812 289.8125 374.238281 289.0625 374.21875 C 288.355469 373.511719 288.605469 372.40625 288.589844 371.453125 C 288.582031 370.945312 288.574219 370.4375 288.566406 369.914062 C 288.5625 369.355469 288.554688 368.792969 288.546875 368.234375 C 288.539062 367.667969 288.53125 367.097656 288.523438 366.53125 C 288.503906 365.03125 288.484375 363.53125 288.464844 362.03125 C 288.445312 360.503906 288.421875 358.972656 288.402344 357.445312 C 288.359375 354.441406 288.320312 351.441406 288.28125 348.4375 C 286.398438 348.429688 284.511719 348.421875 282.628906 348.417969 C 281.988281 348.414062 281.34375 348.410156 280.703125 348.40625 C 279.785156 348.402344 278.863281 348.402344 277.945312 348.398438 C 277.65625 348.398438 277.367188 348.394531 277.070312 348.394531 C 276.378906 348.394531 275.691406 348.414062 275 348.4375 C 274.292969 349.144531 274.542969 350.25 274.527344 351.203125 C 274.519531 351.710938 274.511719 352.21875 274.503906 352.742188 C 274.5 353.300781 274.492188 353.863281 274.484375 354.421875 C 274.476562 354.988281 274.46875 355.558594 274.460938 356.125 C 274.441406 357.625 274.421875 359.125 274.402344 360.625 C 274.382812 362.152344 274.359375 363.683594 274.339844 365.210938 C 274.296875 368.214844 274.257812 371.214844 274.21875 374.21875 C 273.183594 374.230469 272.152344 374.238281 271.117188 374.242188 C 270.824219 374.246094 270.527344 374.25 270.226562 374.253906 C 269.472656 374.257812 268.71875 374.238281 267.96875 374.21875 C 267.261719 373.511719 267.511719 372.40625 267.496094 371.453125 C 267.488281 370.945312 267.480469 370.4375 267.472656 369.914062 C 267.46875 369.355469 267.460938 368.792969 267.453125 368.234375 C 267.445312 367.667969 267.4375 367.097656 267.429688 366.53125 C 267.410156 365.03125 267.390625 363.53125 267.371094 362.03125 C 267.351562 360.503906 267.328125 358.972656 267.308594 357.445312 C 267.265625 354.441406 267.226562 351.441406 267.1875 348.4375 C 265.304688 348.429688 263.417969 348.421875 261.535156 348.417969 C 260.894531 348.414062 260.25 348.410156 259.609375 348.40625 C 258.691406 348.402344 257.769531 348.402344 256.851562 348.398438 C 256.5625 348.398438 256.273438 348.394531 255.976562 348.394531 C 255.285156 348.394531 254.597656 348.414062 253.90625 348.4375 C 253.199219 349.144531 253.449219 350.25 253.433594 351.203125 C 253.425781 351.710938 253.417969 352.21875 253.410156 352.742188 C 253.40625 353.300781 253.398438 353.863281 253.390625 354.421875 C 253.382812 354.988281 253.375 355.558594 253.367188 356.125 C 253.347656 357.625 253.328125 359.125 253.308594 360.625 C 253.289062 362.152344 253.265625 363.683594 253.246094 365.210938 C 253.203125 368.214844 253.164062 371.214844 253.125 374.21875 C 252.027344 374.230469 250.929688 374.238281 249.828125 374.242188 C 249.515625 374.246094 249.203125 374.25 248.878906 374.253906 C 248.082031 374.257812 247.28125 374.238281 246.484375 374.21875 C 245.777344 373.511719 246.027344 372.40625 246.011719 371.453125 C 246.003906 370.945312 245.996094 370.4375 245.988281 369.914062 C 245.984375 369.355469 245.976562 368.792969 245.96875 368.234375 C 245.960938 367.667969 245.953125 367.097656 245.945312 366.53125 C 245.925781 365.03125 245.90625 363.53125 245.886719 362.03125 C 245.867188 360.503906 245.84375 358.972656 245.824219 357.445312 C 245.78125 354.441406 245.742188 351.441406 245.703125 348.4375 C 243.820312 348.429688 241.933594 348.421875 240.050781 348.417969 C 239.410156 348.414062 238.765625 348.410156 238.125 348.40625 C 237.207031 348.402344 236.285156 348.402344 235.367188 348.398438 C 235.078125 348.398438 234.789062 348.394531 234.492188 348.394531 C 233.800781 348.394531 233.113281 348.414062 232.421875 348.4375 C 231.714844 349.144531 231.964844 350.25 231.949219 351.203125 C 231.941406 351.710938 231.933594 352.21875 231.925781 352.742188 C 231.921875 353.300781 231.914062 353.863281 231.90625 354.421875 C 231.898438 354.988281 231.890625 355.558594 231.882812 356.125 C 231.863281 357.625 231.84375 359.125 231.824219 360.625 C 231.804688 362.152344 231.78125 363.683594 231.761719 365.210938 C 231.71875 368.214844 231.679688 371.214844 231.640625 374.21875 C 230.605469 374.230469 229.574219 374.238281 228.539062 374.242188 C 228.246094 374.246094 227.949219 374.25 227.648438 374.253906 C 226.894531 374.257812 226.140625 374.238281 225.390625 374.21875 C 224.683594 373.511719 224.933594 372.40625 224.917969 371.453125 C 224.910156 370.945312 224.902344 370.4375 224.894531 369.914062 C 224.890625 369.355469 224.882812 368.792969 224.875 368.234375 C 224.867188 367.667969 224.859375 367.097656 224.851562 366.53125 C 224.832031 365.03125 224.8125 363.53125 224.792969 362.03125 C 224.773438 360.503906 224.75 358.972656 224.730469 357.445312 C 224.6875 354.441406 224.648438 351.441406 224.609375 348.4375 C 222.726562 348.429688 220.839844 348.421875 218.957031 348.417969 C 218.316406 348.414062 217.671875 348.410156 217.03125 348.40625 C 216.113281 348.402344 215.191406 348.402344 214.273438 348.398438 C 213.984375 348.398438 213.695312 348.394531 213.398438 348.394531 C 212.707031 348.394531 212.019531 348.414062 211.328125 348.4375 C 210.621094 349.144531 210.871094 350.25 210.855469 351.203125 C 210.847656 351.710938 210.839844 352.21875 210.832031 352.742188 C 210.828125 353.300781 210.820312 353.863281 210.8125 354.421875 C 210.804688 354.988281 210.796875 355.558594 210.789062 356.125 C 210.769531 357.625 210.75 359.125 210.730469 360.625 C 210.710938 362.152344 210.6875 363.683594 210.667969 365.210938 C 210.625 368.214844 210.585938 371.214844 210.546875 374.21875 C 209.511719 374.230469 208.480469 374.238281 207.445312 374.242188 C 207.152344 374.246094 206.855469 374.25 206.554688 374.253906 C 205.800781 374.257812 205.046875 374.238281 204.296875 374.21875 C 203.589844 373.511719 203.839844 372.40625 203.824219 371.453125 C 203.816406 370.945312 203.808594 370.4375 203.800781 369.914062 C 203.796875 369.355469 203.789062 368.792969 203.78125 368.234375 C 203.773438 367.667969 203.765625 367.097656 203.757812 366.53125 C 203.738281 365.03125 203.71875 363.53125 203.699219 362.03125 C 203.679688 360.503906 203.65625 358.972656 203.636719 357.445312 C 203.59375 354.441406 203.554688 351.441406 203.515625 348.4375 C 201.632812 348.429688 199.746094 348.421875 197.863281 348.417969 C 197.222656 348.414062 196.578125 348.410156 195.9375 348.40625 C 195.019531 348.402344 194.097656 348.402344 193.179688 348.398438 C 192.890625 348.398438 192.601562 348.394531 192.304688 348.394531 C 191.613281 348.394531 190.925781 348.414062 190.234375 348.4375 C 189.527344 349.144531 189.777344 350.25 189.761719 351.203125 C 189.753906 351.710938 189.746094 352.21875 189.738281 352.742188 C 189.734375 353.300781 189.726562 353.863281 189.71875 354.421875 C 189.710938 354.988281 189.703125 355.558594 189.695312 356.125 C 189.675781 357.625 189.65625 359.125 189.636719 360.625 C 189.617188 362.152344 189.59375 363.683594 189.574219 365.210938 C 189.53125 368.214844 189.492188 371.214844 189.453125 374.21875 C 188.355469 374.230469 187.257812 374.238281 186.15625 374.242188 C 185.84375 374.246094 185.53125 374.25 185.207031 374.253906 C 184.410156 374.257812 183.609375 374.238281 182.8125 374.21875 C 182.105469 373.511719 182.355469 372.40625 182.339844 371.453125 C 182.332031 370.945312 182.324219 370.4375 182.316406 369.914062 C 182.3125 369.355469 182.304688 368.792969 182.296875 368.234375 C 182.289062 367.667969 182.28125 367.097656 182.273438 366.53125 C 182.253906 365.03125 182.234375 363.53125 182.214844 362.03125 C 182.195312 360.503906 182.171875 358.972656 182.152344 357.445312 C 182.109375 354.441406 182.070312 351.441406 182.03125 348.4375 C 181.59375 348.425781 181.152344 348.417969 180.699219 348.40625 C 179.054688 348.371094 177.40625 348.332031 175.757812 348.292969 C 175.050781 348.273438 174.339844 348.257812 173.628906 348.242188 C 160.289062 347.945312 160.289062 347.945312 155.113281 343.042969 C 152.058594 339.820312 151.332031 336.414062 151.339844 332.078125 C 151.328125 331.4375 151.328125 331.4375 151.320312 330.785156 C 151.304688 329.433594 151.300781 328.082031 151.292969 326.734375 C 151.28125 325.371094 151.269531 324.007812 151.253906 322.644531 C 151.246094 321.800781 151.238281 320.953125 151.234375 320.109375 C 151.230469 319.542969 151.230469 319.542969 151.226562 318.960938 C 151.226562 318.628906 151.222656 318.292969 151.222656 317.949219 C 151.253906 317.1875 151.253906 317.1875 150.78125 316.796875 C 149.992188 316.761719 149.203125 316.753906 148.414062 316.757812 C 147.90625 316.761719 147.398438 316.761719 146.875 316.761719 C 146.601562 316.765625 146.332031 316.765625 146.050781 316.765625 C 145.199219 316.773438 144.347656 316.773438 143.5 316.777344 C 141.695312 316.78125 139.890625 316.789062 138.085938 316.796875 C 135.996094 316.804688 133.90625 316.8125 131.816406 316.820312 C 130.976562 316.820312 130.136719 316.824219 129.296875 316.832031 C 128.789062 316.832031 128.28125 316.832031 127.757812 316.835938 C 127.308594 316.835938 126.863281 316.839844 126.398438 316.839844 C 125.390625 316.796875 125.390625 316.796875 125 316.40625 C 124.949219 315.433594 124.925781 314.476562 124.925781 313.5 C 124.921875 313.230469 124.917969 312.957031 124.914062 312.679688 C 124.910156 311.96875 124.953125 311.257812 125 310.546875 C 125.78125 309.765625 125.78125 309.765625 126.855469 309.671875 C 127.308594 309.671875 127.765625 309.675781 128.238281 309.675781 C 128.488281 309.675781 128.738281 309.675781 129 309.675781 C 129.832031 309.675781 130.664062 309.683594 131.496094 309.6875 C 132.074219 309.691406 132.652344 309.691406 133.226562 309.691406 C 134.746094 309.695312 136.265625 309.703125 137.785156 309.710938 C 139.609375 309.722656 141.429688 309.726562 143.253906 309.730469 C 146.023438 309.738281 148.792969 309.753906 151.5625 309.765625 C 151.433594 305.125 151.304688 300.484375 151.171875 295.703125 C 149.316406 295.679688 147.457031 295.65625 145.546875 295.632812 C 144.371094 295.617188 143.199219 295.601562 142.027344 295.582031 C 140.164062 295.558594 138.300781 295.53125 136.433594 295.507812 C 134.933594 295.492188 133.429688 295.46875 131.929688 295.449219 C 131.355469 295.441406 130.78125 295.433594 130.207031 295.425781 C 129.40625 295.417969 128.601562 295.40625 127.800781 295.394531 C 127.117188 295.382812 127.117188 295.382812 126.417969 295.375 C 125.390625 295.3125 125.390625 295.3125 125 294.921875 C 124.949219 294.019531 124.929688 293.117188 124.925781 292.210938 C 124.921875 291.71875 124.914062 291.222656 124.910156 290.710938 C 125 289.453125 125 289.453125 125.78125 288.671875 C 126.855469 288.578125 126.855469 288.578125 128.238281 288.582031 C 128.488281 288.582031 128.738281 288.582031 129 288.582031 C 129.832031 288.582031 130.664062 288.589844 131.496094 288.59375 C 132.074219 288.597656 132.652344 288.597656 133.226562 288.597656 C 134.746094 288.601562 136.265625 288.609375 137.785156 288.617188 C 139.609375 288.628906 141.429688 288.632812 143.253906 288.636719 C 146.023438 288.644531 148.792969 288.660156 151.5625 288.671875 C 151.433594 284.03125 151.304688 279.390625 151.171875 274.609375 C 149.316406 274.585938 147.457031 274.5625 145.546875 274.539062 C 144.371094 274.523438 143.199219 274.507812 142.027344 274.488281 C 140.164062 274.464844 138.300781 274.4375 136.433594 274.414062 C 134.933594 274.398438 133.429688 274.375 131.929688 274.355469 C 131.355469 274.347656 130.78125 274.339844 130.207031 274.332031 C 129.40625 274.324219 128.601562 274.3125 127.800781 274.300781 C 127.117188 274.289062 127.117188 274.289062 126.417969 274.28125 C 125.390625 274.21875 125.390625 274.21875 125 273.828125 C 124.949219 272.925781 124.929688 272.023438 124.925781 271.117188 C 124.921875 270.625 124.914062 270.128906 124.910156 269.617188 C 125 268.359375 125 268.359375 125.78125 267.578125 C 126.855469 267.484375 126.855469 267.484375 128.238281 267.488281 C 128.488281 267.488281 128.738281 267.488281 129 267.488281 C 129.832031 267.488281 130.664062 267.496094 131.496094 267.5 C 132.074219 267.503906 132.652344 267.503906 133.226562 267.503906 C 134.746094 267.507812 136.265625 267.515625 137.785156 267.523438 C 139.609375 267.535156 141.429688 267.539062 143.253906 267.542969 C 146.023438 267.550781 148.792969 267.566406 151.5625 267.578125 C 151.433594 262.9375 151.304688 258.296875 151.171875 253.515625 C 149.316406 253.492188 147.457031 253.46875 145.546875 253.445312 C 144.371094 253.429688 143.199219 253.414062 142.027344 253.394531 C 140.164062 253.371094 138.300781 253.34375 136.433594 253.320312 C 134.933594 253.304688 133.429688 253.28125 131.929688 253.261719 C 131.355469 253.253906 130.78125 253.246094 130.207031 253.238281 C 129.40625 253.230469 128.601562 253.21875 127.800781 253.207031 C 127.117188 253.195312 127.117188 253.195312 126.417969 253.1875 C 125.390625 253.125 125.390625 253.125 125 252.734375 C 124.949219 251.761719 124.925781 250.804688 124.925781 249.828125 C 124.921875 249.558594 124.917969 249.285156 124.914062 249.007812 C 124.910156 248.296875 124.953125 247.585938 125 246.875 C 125.78125 246.09375 125.78125 246.09375 126.855469 246 C 127.308594 246 127.765625 246.003906 128.238281 246.003906 C 128.488281 246.003906 128.738281 246.003906 129 246.003906 C 129.832031 246.003906 130.664062 246.011719 131.496094 246.015625 C 132.074219 246.019531 132.652344 246.019531 133.226562 246.019531 C 134.746094 246.023438 136.265625 246.03125 137.785156 246.039062 C 139.609375 246.050781 141.429688 246.054688 143.253906 246.058594 C 146.023438 246.066406 148.792969 246.082031 151.5625 246.09375 C 151.433594 241.324219 151.304688 236.554688 151.171875 231.640625 C 148.386719 231.648438 148.386719 231.648438 145.546875 231.65625 C 144.371094 231.65625 143.199219 231.660156 142.027344 231.660156 C 140.164062 231.660156 138.300781 231.664062 136.433594 231.671875 C 134.933594 231.675781 133.429688 231.675781 131.929688 231.675781 C 131.355469 231.679688 130.78125 231.679688 130.207031 231.683594 C 129.40625 231.683594 128.601562 231.683594 127.800781 231.683594 C 127.34375 231.6875 126.886719 231.6875 126.417969 231.6875 C 125.390625 231.640625 125.390625 231.640625 125 231.25 C 124.949219 230.347656 124.929688 229.445312 124.925781 228.539062 C 124.921875 228.046875 124.914062 227.550781 124.910156 227.039062 C 125 225.78125 125 225.78125 125.78125 225 C 126.855469 224.90625 126.855469 224.90625 128.238281 224.910156 C 128.488281 224.910156 128.738281 224.910156 129 224.910156 C 129.832031 224.910156 130.664062 224.917969 131.496094 224.921875 C 132.074219 224.925781 132.652344 224.925781 133.226562 224.925781 C 134.746094 224.929688 136.265625 224.9375 137.785156 224.945312 C 139.609375 224.957031 141.429688 224.960938 143.253906 224.964844 C 146.023438 224.972656 148.792969 224.988281 151.5625 225 C 151.433594 220.359375 151.304688 215.71875 151.171875 210.9375 C 149.316406 210.914062 147.457031 210.890625 145.546875 210.867188 C 144.371094 210.851562 143.199219 210.835938 142.027344 210.816406 C 140.164062 210.792969 138.300781 210.765625 136.433594 210.742188 C 134.933594 210.726562 133.429688 210.703125 131.929688 210.683594 C 131.355469 210.675781 130.78125 210.667969 130.207031 210.660156 C 129.40625 210.652344 128.601562 210.640625 127.800781 210.628906 C 127.34375 210.621094 126.886719 210.613281 126.417969 210.609375 C 125.390625 210.546875 125.390625 210.546875 125 210.15625 C 124.949219 209.253906 124.929688 208.351562 124.925781 207.445312 C 124.921875 206.953125 124.914062 206.457031 124.910156 205.945312 C 125 204.6875 125 204.6875 125.78125 203.90625 C 126.855469 203.8125 126.855469 203.8125 128.238281 203.816406 C 128.488281 203.816406 128.738281 203.816406 129 203.816406 C 129.832031 203.816406 130.664062 203.824219 131.496094 203.828125 C 132.074219 203.832031 132.652344 203.832031 133.226562 203.832031 C 134.746094 203.835938 136.265625 203.84375 137.785156 203.851562 C 139.609375 203.863281 141.429688 203.867188 143.253906 203.871094 C 146.023438 203.878906 148.792969 203.894531 151.5625 203.90625 C 151.433594 199.265625 151.304688 194.625 151.171875 189.84375 C 149.316406 189.820312 147.457031 189.796875 145.546875 189.773438 C 144.371094 189.757812 143.199219 189.742188 142.027344 189.722656 C 140.164062 189.699219 138.300781 189.671875 136.433594 189.648438 C 134.933594 189.632812 133.429688 189.609375 131.929688 189.589844 C 131.355469 189.582031 130.78125 189.574219 130.207031 189.566406 C 129.40625 189.558594 128.601562 189.546875 127.800781 189.535156 C 127.34375 189.527344 126.886719 189.519531 126.417969 189.515625 C 125.390625 189.453125 125.390625 189.453125 125 189.0625 C 124.949219 188.160156 124.929688 187.257812 124.925781 186.351562 C 124.921875 185.859375 124.914062 185.363281 124.910156 184.851562 C 125 183.59375 125 183.59375 125.78125 182.8125 C 126.855469 182.71875 126.855469 182.71875 128.238281 182.722656 C 128.488281 182.722656 128.738281 182.722656 129 182.722656 C 129.832031 182.722656 130.664062 182.730469 131.496094 182.734375 C 132.074219 182.738281 132.652344 182.738281 133.226562 182.738281 C 134.746094 182.742188 136.265625 182.75 137.785156 182.757812 C 139.335938 182.765625 140.886719 182.769531 142.4375 182.773438 C 145.476562 182.78125 148.519531 182.796875 151.5625 182.8125 C 151.558594 182.578125 151.554688 182.34375 151.550781 182.101562 C 151.503906 179.644531 151.476562 177.183594 151.457031 174.726562 C 151.445312 173.808594 151.433594 172.894531 151.414062 171.980469 C 151.210938 160.707031 151.210938 160.707031 155.152344 156.492188 C 158.9375 152.570312 163.09375 151.28125 168.414062 151.152344 C 170.699219 151.125 172.984375 151.136719 175.269531 151.148438 C 175.964844 151.148438 176.660156 151.152344 177.355469 151.152344 C 179.042969 151.15625 180.734375 151.164062 182.421875 151.171875 C 182.421875 150.855469 182.417969 150.539062 182.417969 150.214844 C 182.402344 147.234375 182.390625 144.257812 182.382812 141.28125 C 182.378906 139.75 182.371094 138.21875 182.363281 136.6875 C 182.355469 135.210938 182.351562 133.734375 182.347656 132.257812 C 182.347656 131.695312 182.34375 131.128906 182.339844 130.566406 C 182.332031 129.777344 182.332031 128.988281 182.332031 128.199219 C 182.332031 127.75 182.328125 127.300781 182.328125 126.839844 C 182.476562 125.179688 182.917969 125.019531 184.546875 124.910156 Z M 184.546875 124.910156 "/>
<path style=" stroke:none;fill-rule:nonzero;fill:rgb(36.862745%,43.137255%,49.803922%);fill-opacity:1;" d="M 173.355469 171.386719 C 173.828125 171.386719 174.296875 171.386719 174.78125 171.386719 C 175.046875 171.386719 175.308594 171.386719 175.578125 171.382812 C 176.46875 171.382812 177.355469 171.382812 178.246094 171.386719 C 178.882812 171.386719 179.523438 171.386719 180.164062 171.386719 C 181.929688 171.382812 183.695312 171.386719 185.460938 171.386719 C 187.363281 171.390625 189.265625 171.386719 191.164062 171.386719 C 194.894531 171.386719 198.621094 171.386719 202.347656 171.390625 C 206.683594 171.394531 211.019531 171.394531 215.355469 171.394531 C 223.089844 171.394531 230.824219 171.398438 238.558594 171.402344 C 246.074219 171.410156 253.585938 171.414062 261.101562 171.410156 C 261.792969 171.410156 261.792969 171.410156 262.503906 171.410156 C 263.195312 171.410156 263.195312 171.410156 263.902344 171.410156 C 272.445312 171.410156 280.984375 171.414062 289.527344 171.417969 C 292.554688 171.417969 295.582031 171.417969 298.605469 171.417969 C 302.292969 171.417969 305.976562 171.421875 309.660156 171.425781 C 311.542969 171.425781 313.425781 171.429688 315.308594 171.425781 C 317.027344 171.425781 318.75 171.429688 320.46875 171.429688 C 321.09375 171.433594 321.71875 171.433594 322.34375 171.429688 C 323.1875 171.429688 324.03125 171.433594 324.875 171.433594 C 325.347656 171.433594 325.816406 171.433594 326.300781 171.433594 C 327.34375 171.484375 327.34375 171.484375 327.734375 171.875 C 327.769531 172.652344 327.78125 173.433594 327.777344 174.214844 C 327.777344 174.714844 327.777344 175.214844 327.777344 175.730469 C 327.777344 176.28125 327.773438 176.832031 327.773438 177.382812 C 327.773438 177.941406 327.769531 178.5 327.769531 179.0625 C 327.769531 180.539062 327.765625 182.015625 327.761719 183.492188 C 327.757812 185.261719 327.753906 187.03125 327.753906 188.800781 C 327.75 191.492188 327.742188 194.183594 327.734375 196.875 C 315.746094 197.066406 315.746094 197.066406 303.515625 197.265625 C 303.386719 197.78125 303.257812 198.296875 303.125 198.828125 C 303.425781 198.832031 303.730469 198.835938 304.042969 198.839844 C 306.886719 198.878906 309.734375 198.917969 312.578125 198.960938 C 314.039062 198.980469 315.503906 199.003906 316.96875 199.023438 C 318.378906 199.039062 319.789062 199.0625 321.199219 199.082031 C 321.738281 199.089844 322.277344 199.097656 322.816406 199.105469 C 323.570312 199.113281 324.324219 199.125 325.078125 199.136719 C 325.503906 199.144531 325.933594 199.152344 326.378906 199.15625 C 327.34375 199.21875 327.34375 199.21875 327.734375 199.609375 C 327.769531 200.246094 327.78125 200.882812 327.777344 201.519531 C 327.777344 201.925781 327.777344 202.332031 327.777344 202.75 C 327.777344 203.191406 327.773438 203.636719 327.773438 204.089844 C 327.773438 204.765625 327.773438 204.765625 327.769531 205.457031 C 327.769531 206.898438 327.765625 208.34375 327.757812 209.789062 C 327.757812 210.765625 327.753906 211.742188 327.753906 212.71875 C 327.75 215.121094 327.742188 217.519531 327.734375 219.921875 C 323.367188 219.929688 319 219.9375 314.632812 219.941406 C 312.605469 219.945312 310.578125 219.945312 308.550781 219.953125 C 306.597656 219.957031 304.640625 219.957031 302.6875 219.957031 C 301.9375 219.960938 301.191406 219.960938 300.445312 219.964844 C 299.402344 219.964844 298.355469 219.964844 297.3125 219.964844 C 296.847656 219.96875 296.847656 219.96875 296.371094 219.96875 C 294.230469 219.964844 294.230469 219.964844 293.359375 219.53125 C 293.085938 218.875 292.808594 218.222656 292.535156 217.566406 C 291.570312 215.429688 290.582031 214.078125 288.402344 213.085938 C 285.613281 212.128906 283.210938 212.402344 280.566406 213.671875 C 278.351562 215.015625 276.984375 217.097656 276.171875 219.53125 C 275.789062 222.503906 276.304688 224.933594 278.125 227.34375 C 280.605469 229.738281 283.183594 229.9375 286.515625 229.882812 C 289.027344 229.523438 290.484375 228.464844 292.035156 226.554688 C 292.898438 225.324219 293.507812 224.019531 294.140625 222.65625 C 294.828125 221.96875 295.742188 222.214844 296.65625 222.210938 C 297.113281 222.214844 297.113281 222.214844 297.582031 222.214844 C 298.0625 222.214844 298.0625 222.214844 298.550781 222.214844 C 299.609375 222.210938 300.671875 222.210938 301.734375 222.214844 C 302.46875 222.214844 303.203125 222.214844 303.9375 222.210938 C 305.476562 222.210938 307.015625 222.210938 308.558594 222.214844 C 310.539062 222.21875 312.519531 222.214844 314.496094 222.214844 C 316.015625 222.210938 317.53125 222.210938 319.046875 222.214844 C 319.777344 222.214844 320.507812 222.214844 321.238281 222.210938 C 322.257812 222.210938 323.273438 222.214844 324.292969 222.214844 C 324.597656 222.214844 324.902344 222.214844 325.21875 222.210938 C 327.300781 222.222656 327.300781 222.222656 327.734375 222.65625 C 327.773438 223.21875 327.78125 223.78125 327.78125 224.34375 C 327.785156 224.710938 327.785156 225.078125 327.785156 225.457031 C 327.785156 225.863281 327.78125 226.273438 327.78125 226.691406 C 327.78125 227.335938 327.78125 227.335938 327.78125 227.992188 C 327.78125 229.445312 327.78125 230.894531 327.777344 232.347656 C 327.777344 233.382812 327.777344 234.417969 327.777344 235.453125 C 327.777344 237.6875 327.777344 239.921875 327.777344 242.15625 C 327.773438 245.390625 327.773438 248.621094 327.769531 251.851562 C 327.769531 257.09375 327.765625 262.335938 327.765625 267.578125 C 327.761719 272.675781 327.757812 277.769531 327.753906 282.863281 C 327.753906 283.332031 327.753906 283.332031 327.753906 283.8125 C 327.753906 285.386719 327.753906 286.960938 327.753906 288.535156 C 327.75 301.601562 327.742188 314.667969 327.734375 327.734375 C 324.429688 327.742188 321.125 327.75 317.824219 327.753906 C 316.289062 327.757812 314.753906 327.757812 313.222656 327.765625 C 311.742188 327.769531 310.261719 327.769531 308.785156 327.769531 C 308.21875 327.773438 307.652344 327.773438 307.085938 327.777344 C 306.296875 327.777344 305.507812 327.777344 304.71875 327.777344 C 304.042969 327.78125 304.042969 327.78125 303.355469 327.78125 C 302.34375 327.734375 302.34375 327.734375 301.953125 327.34375 C 301.90625 326.804688 301.882812 326.261719 301.871094 325.722656 C 301.863281 325.378906 301.855469 325.035156 301.847656 324.679688 C 301.839844 324.117188 301.839844 324.117188 301.828125 323.546875 C 301.820312 323.164062 301.8125 322.785156 301.804688 322.390625 C 301.78125 321.167969 301.757812 319.949219 301.734375 318.726562 C 301.714844 317.898438 301.699219 317.074219 301.683594 316.246094 C 301.640625 314.214844 301.601562 312.1875 301.5625 310.15625 C 301.046875 310.285156 300.53125 310.414062 300 310.546875 C 299.871094 316.21875 299.742188 321.890625 299.609375 327.734375 C 297.011719 327.746094 297.011719 327.746094 294.359375 327.757812 C 293.539062 327.765625 293.539062 327.765625 292.703125 327.769531 C 292.0625 327.769531 292.0625 327.769531 291.40625 327.773438 C 290.96875 327.773438 290.527344 327.777344 290.074219 327.777344 C 289.0625 327.734375 289.0625 327.734375 288.671875 327.34375 C 288.628906 326.453125 288.613281 325.558594 288.609375 324.664062 C 288.605469 324.382812 288.605469 324.105469 288.601562 323.816406 C 288.597656 322.886719 288.59375 321.953125 288.59375 321.023438 C 288.589844 320.378906 288.589844 319.734375 288.585938 319.089844 C 288.582031 317.734375 288.578125 316.382812 288.578125 315.027344 C 288.574219 313.292969 288.566406 311.554688 288.554688 309.820312 C 288.546875 308.488281 288.546875 307.15625 288.546875 305.824219 C 288.542969 305.183594 288.542969 304.542969 288.535156 303.902344 C 288.53125 303.007812 288.53125 302.113281 288.53125 301.21875 C 288.53125 300.707031 288.53125 300.199219 288.527344 299.671875 C 288.671875 298.4375 288.671875 298.4375 289.222656 297.699219 C 289.902344 297.222656 290.566406 296.902344 291.332031 296.582031 C 293.097656 295.710938 294.402344 294.746094 295.3125 292.96875 C 295.628906 291.402344 295.699219 289.878906 295.703125 288.28125 C 295.726562 287.886719 295.75 287.492188 295.777344 287.089844 C 295.640625 284.976562 294.371094 283.542969 292.96875 282.03125 C 291.148438 280.636719 289.394531 279.917969 287.085938 280.027344 C 284.789062 280.410156 282.539062 281.367188 281.007812 283.164062 C 279.695312 285.15625 278.578125 287.351562 278.734375 289.800781 C 279.28125 292.429688 280.425781 294.398438 282.640625 295.921875 C 283.523438 296.460938 284.234375 296.84375 285.238281 297.082031 C 285.46875 297.140625 285.699219 297.203125 285.9375 297.265625 C 286.515625 298.421875 286.378906 299.59375 286.371094 300.859375 C 286.371094 301.152344 286.371094 301.441406 286.371094 301.738281 C 286.371094 302.699219 286.371094 303.65625 286.367188 304.617188 C 286.367188 305.28125 286.363281 305.945312 286.363281 306.609375 C 286.363281 308.363281 286.359375 310.113281 286.355469 311.863281 C 286.351562 313.648438 286.347656 315.433594 286.347656 317.21875 C 286.34375 320.722656 286.335938 324.230469 286.328125 327.734375 C 284.667969 327.742188 283.003906 327.75 281.34375 327.753906 C 280.777344 327.757812 280.210938 327.761719 279.644531 327.765625 C 278.835938 327.769531 278.023438 327.769531 277.210938 327.773438 C 276.722656 327.773438 276.234375 327.777344 275.730469 327.777344 C 274.609375 327.734375 274.609375 327.734375 274.21875 327.34375 C 274.171875 326.625 274.148438 325.902344 274.136719 325.183594 C 274.128906 324.722656 274.121094 324.261719 274.113281 323.785156 C 274.105469 323.03125 274.105469 323.03125 274.09375 322.265625 C 274.085938 321.753906 274.078125 321.242188 274.070312 320.714844 C 274.050781 319.355469 274.03125 317.992188 274.011719 316.632812 C 273.992188 315.246094 273.96875 313.859375 273.949219 312.46875 C 273.90625 309.746094 273.867188 307.019531 273.828125 304.296875 C 273.3125 304.425781 272.796875 304.554688 272.265625 304.6875 C 272.136719 312.292969 272.007812 319.898438 271.875 327.734375 C 263.3125 327.75 263.3125 327.75 259.675781 327.753906 C 257.1875 327.753906 254.703125 327.757812 252.214844 327.765625 C 250.210938 327.769531 248.210938 327.769531 246.207031 327.769531 C 245.441406 327.773438 244.671875 327.773438 243.90625 327.777344 C 242.839844 327.777344 241.769531 327.777344 240.699219 327.777344 C 240.21875 327.78125 240.21875 327.78125 239.730469 327.78125 C 237.542969 327.777344 237.542969 327.777344 237.109375 327.34375 C 237.066406 326.257812 237.050781 325.183594 237.046875 324.097656 C 237.046875 323.757812 237.042969 323.417969 237.042969 323.066406 C 237.039062 322.324219 237.035156 321.582031 237.03125 320.839844 C 237.027344 319.660156 237.019531 318.484375 237.011719 317.304688 C 236.988281 313.957031 236.964844 310.605469 236.953125 307.257812 C 236.945312 305.210938 236.929688 303.164062 236.914062 301.117188 C 236.90625 300.339844 236.90625 299.558594 236.902344 298.78125 C 236.894531 293.097656 236.769531 288.449219 232.8125 283.984375 C 229.292969 280.929688 224.847656 280.6875 220.394531 280.695312 C 219.863281 280.695312 219.332031 280.691406 218.800781 280.6875 C 217.371094 280.675781 215.941406 280.675781 214.511719 280.675781 C 213.011719 280.671875 211.515625 280.664062 210.015625 280.65625 C 207.179688 280.640625 204.347656 280.628906 201.511719 280.625 C 196.425781 280.609375 191.339844 280.585938 186.253906 280.5625 C 184.46875 280.554688 182.6875 280.546875 180.902344 280.542969 C 179.796875 280.542969 178.6875 280.539062 177.582031 280.53125 C 176.824219 280.53125 176.0625 280.53125 175.300781 280.527344 C 174.628906 280.527344 174.628906 280.527344 173.941406 280.523438 C 173.550781 280.523438 173.15625 280.519531 172.753906 280.519531 C 171.875 280.46875 171.875 280.46875 171.484375 280.078125 C 171.398438 278.414062 171.410156 276.75 171.410156 275.085938 C 171.410156 274.246094 171.402344 273.410156 171.398438 272.574219 C 171.394531 272.042969 171.394531 271.515625 171.394531 270.984375 C 171.394531 270.5 171.390625 270.015625 171.390625 269.519531 C 171.484375 268.359375 171.484375 268.359375 172.265625 267.578125 C 173.28125 267.503906 174.25 267.476562 175.265625 267.484375 C 175.578125 267.484375 175.894531 267.484375 176.214844 267.480469 C 177.269531 267.480469 178.328125 267.484375 179.382812 267.488281 C 180.136719 267.488281 180.890625 267.488281 181.644531 267.488281 C 183.699219 267.488281 185.75 267.492188 187.804688 267.5 C 189.949219 267.503906 192.09375 267.503906 194.234375 267.503906 C 198.296875 267.507812 202.359375 267.515625 206.421875 267.523438 C 211.042969 267.53125 215.667969 267.535156 220.292969 267.539062 C 229.804688 267.546875 239.316406 267.5625 248.828125 267.578125 C 248.976562 267.898438 249.125 268.222656 249.277344 268.554688 C 249.476562 268.976562 249.679688 269.398438 249.886719 269.832031 C 250.082031 270.25 250.277344 270.667969 250.480469 271.097656 C 251.71875 273.1875 253.601562 274.246094 255.859375 275 C 258.757812 275.261719 261.28125 275.238281 263.671875 273.4375 C 265.289062 271.929688 266.253906 270.261719 266.550781 268.0625 C 266.628906 264.664062 265.925781 262.097656 263.550781 259.59375 C 261.339844 258.3125 259.226562 257.425781 256.640625 257.8125 C 253.476562 258.902344 251.550781 260.1875 249.996094 263.175781 C 249.578125 264.097656 249.578125 264.097656 249.21875 265.234375 C 239.140625 265.242188 229.0625 265.25 218.984375 265.253906 C 214.308594 265.257812 209.628906 265.257812 204.949219 265.265625 C 200.871094 265.269531 196.796875 265.269531 192.71875 265.269531 C 190.558594 265.273438 188.398438 265.273438 186.238281 265.277344 C 184.210938 265.277344 182.179688 265.277344 180.148438 265.277344 C 179.402344 265.277344 178.652344 265.28125 177.90625 265.28125 C 176.890625 265.28125 175.875 265.28125 174.859375 265.28125 C 174.410156 265.28125 174.410156 265.28125 173.949219 265.285156 C 171.917969 265.277344 171.917969 265.277344 171.484375 264.84375 C 171.445312 264.273438 171.429688 263.699219 171.425781 263.125 C 171.425781 262.761719 171.421875 262.394531 171.421875 262.019531 C 171.417969 261.625 171.417969 261.226562 171.417969 260.816406 C 171.417969 260.210938 171.417969 260.210938 171.414062 259.589844 C 171.414062 258.730469 171.410156 257.871094 171.410156 257.011719 C 171.410156 255.695312 171.402344 254.378906 171.398438 253.058594 C 171.394531 252.226562 171.394531 251.394531 171.394531 250.5625 C 171.390625 250.167969 171.390625 249.769531 171.386719 249.363281 C 171.386719 248.996094 171.386719 248.628906 171.390625 248.253906 C 171.390625 247.929688 171.386719 247.605469 171.386719 247.273438 C 171.484375 246.484375 171.484375 246.484375 172.265625 245.703125 C 173.421875 245.605469 173.421875 245.605469 174.9375 245.605469 C 175.355469 245.601562 175.355469 245.601562 175.78125 245.601562 C 176.71875 245.597656 177.652344 245.601562 178.589844 245.601562 C 179.261719 245.601562 179.929688 245.601562 180.601562 245.597656 C 182.046875 245.597656 183.492188 245.59375 184.9375 245.597656 C 187.226562 245.597656 189.515625 245.589844 191.804688 245.585938 C 198.3125 245.566406 204.820312 245.558594 211.332031 245.554688 C 214.925781 245.554688 218.515625 245.546875 222.109375 245.53125 C 224.382812 245.523438 226.652344 245.523438 228.925781 245.527344 C 230.34375 245.527344 231.765625 245.523438 233.183594 245.515625 C 233.839844 245.515625 234.492188 245.515625 235.148438 245.519531 C 240.542969 245.542969 245.1875 244.929688 249.21875 241.015625 C 252.246094 237.824219 252.90625 234.164062 252.894531 229.882812 C 252.898438 229.324219 252.898438 229.324219 252.90625 228.753906 C 252.921875 227.171875 252.929688 225.59375 252.933594 224.015625 C 252.941406 222.855469 252.953125 221.695312 252.964844 220.535156 C 252.964844 220.175781 252.964844 219.820312 252.960938 219.449219 C 252.964844 219.117188 252.96875 218.789062 252.976562 218.445312 C 252.976562 218.15625 252.976562 217.863281 252.976562 217.5625 C 253.167969 216.566406 253.496094 216.238281 254.296875 215.625 C 254.78125 215.472656 255.265625 215.320312 255.761719 215.160156 C 257.800781 214.445312 258.953125 213.074219 260.15625 211.328125 C 261.246094 209.054688 261.285156 206.667969 260.5 204.296875 C 259.53125 202.019531 258.289062 199.828125 255.933594 198.828125 C 252.585938 197.871094 250.203125 198.40625 247.140625 200.0625 C 245.144531 201.433594 244.464844 203.082031 243.605469 205.273438 C 243.109375 208.03125 243.582031 209.910156 245.136719 212.179688 C 246.722656 214.171875 248.296875 214.992188 250.78125 215.625 C 251.398438 216.859375 251.242188 218.183594 251.25 219.539062 C 251.253906 219.851562 251.253906 220.167969 251.257812 220.492188 C 251.261719 221.164062 251.265625 221.835938 251.265625 222.507812 C 251.269531 223.515625 251.28125 224.523438 251.292969 225.53125 C 251.359375 235.730469 251.359375 235.730469 248 239.519531 C 243.171875 244.21875 237.023438 243.808594 230.683594 243.800781 C 230.042969 243.800781 229.398438 243.800781 228.757812 243.800781 C 227.023438 243.804688 225.289062 243.804688 223.554688 243.800781 C 221.738281 243.800781 219.921875 243.800781 218.101562 243.804688 C 215.058594 243.804688 212.011719 243.804688 208.964844 243.800781 C 205.441406 243.796875 201.914062 243.800781 198.386719 243.800781 C 195.359375 243.804688 192.332031 243.804688 189.304688 243.800781 C 187.496094 243.800781 185.6875 243.800781 183.878906 243.804688 C 182.179688 243.804688 180.484375 243.804688 178.789062 243.800781 C 178.164062 243.800781 177.539062 243.800781 176.917969 243.800781 C 176.070312 243.804688 175.21875 243.800781 174.371094 243.800781 C 173.898438 243.800781 173.421875 243.800781 172.929688 243.800781 C 171.875 243.75 171.875 243.75 171.484375 243.359375 C 171.441406 242.4375 171.425781 241.523438 171.425781 240.601562 C 171.425781 240.3125 171.425781 240.027344 171.421875 239.726562 C 171.421875 238.769531 171.417969 237.8125 171.417969 236.855469 C 171.417969 236.191406 171.417969 235.527344 171.414062 234.863281 C 171.414062 233.472656 171.410156 232.082031 171.410156 230.6875 C 171.410156 228.902344 171.40625 227.113281 171.398438 225.328125 C 171.394531 223.957031 171.394531 222.585938 171.394531 221.21875 C 171.394531 220.558594 171.394531 219.898438 171.390625 219.242188 C 171.386719 218.320312 171.386719 217.398438 171.390625 216.480469 C 171.386719 216.066406 171.386719 216.066406 171.382812 215.648438 C 171.394531 213.761719 171.394531 213.761719 172.265625 212.890625 C 173.339844 212.796875 173.339844 212.796875 174.722656 212.800781 C 174.972656 212.800781 175.222656 212.800781 175.484375 212.800781 C 176.316406 212.800781 177.148438 212.808594 177.980469 212.8125 C 178.558594 212.816406 179.136719 212.816406 179.710938 212.816406 C 181.230469 212.820312 182.75 212.828125 184.269531 212.835938 C 185.820312 212.84375 187.371094 212.847656 188.921875 212.851562 C 191.960938 212.859375 195.003906 212.875 198.046875 212.890625 C 197.917969 212.246094 197.789062 211.601562 197.65625 210.9375 C 197.335938 210.933594 197.011719 210.929688 196.679688 210.925781 C 193.652344 210.886719 190.621094 210.847656 187.59375 210.804688 C 186.035156 210.785156 184.476562 210.761719 182.917969 210.742188 C 181.417969 210.726562 179.914062 210.703125 178.414062 210.683594 C 177.839844 210.675781 177.265625 210.667969 176.691406 210.660156 C 175.890625 210.652344 175.085938 210.640625 174.285156 210.628906 C 173.828125 210.621094 173.371094 210.613281 172.902344 210.609375 C 171.875 210.546875 171.875 210.546875 171.484375 210.15625 C 171.441406 209.179688 171.421875 208.214844 171.417969 207.242188 C 171.417969 206.949219 171.417969 206.65625 171.414062 206.355469 C 171.414062 205.734375 171.410156 205.113281 171.410156 204.496094 C 171.410156 203.546875 171.402344 202.59375 171.398438 201.644531 C 171.394531 201.042969 171.394531 200.445312 171.394531 199.84375 C 171.390625 199.558594 171.390625 199.273438 171.386719 198.976562 C 171.394531 196.964844 171.394531 196.964844 172.265625 196.09375 C 173.324219 196.019531 174.34375 195.996094 175.402344 196.003906 C 175.726562 196.003906 176.050781 196.003906 176.382812 196.003906 C 177.457031 196.003906 178.53125 196.011719 179.605469 196.015625 C 180.347656 196.019531 181.089844 196.019531 181.835938 196.019531 C 183.792969 196.023438 185.753906 196.03125 187.710938 196.039062 C 189.707031 196.046875 191.707031 196.050781 193.703125 196.054688 C 197.625 196.0625 201.546875 196.078125 205.46875 196.09375 C 205.617188 196.414062 205.765625 196.738281 205.917969 197.070312 C 206.117188 197.492188 206.320312 197.914062 206.527344 198.347656 C 206.722656 198.765625 206.917969 199.183594 207.121094 199.613281 C 208.359375 201.703125 210.242188 202.761719 212.5 203.515625 C 215.207031 203.722656 217.578125 203.796875 219.921875 202.34375 C 221.6875 200.683594 222.863281 199.023438 223.191406 196.578125 C 223.269531 193.179688 222.566406 190.613281 220.191406 188.109375 C 217.941406 186.800781 216.054688 186.039062 213.425781 186.472656 C 210.957031 187.128906 208.835938 188.03125 207.421875 190.234375 C 206.800781 191.367188 206.335938 192.550781 205.859375 193.75 C 201.433594 193.757812 197.011719 193.765625 192.585938 193.769531 C 190.53125 193.773438 188.476562 193.773438 186.425781 193.78125 C 184.445312 193.785156 182.464844 193.785156 180.480469 193.785156 C 179.726562 193.789062 178.96875 193.789062 178.210938 193.792969 C 177.152344 193.792969 176.097656 193.792969 175.039062 193.792969 C 174.5625 193.796875 174.5625 193.796875 174.082031 193.796875 C 171.917969 193.792969 171.917969 193.792969 171.484375 193.359375 C 171.445312 192.703125 171.429688 192.046875 171.425781 191.390625 C 171.425781 190.972656 171.421875 190.550781 171.421875 190.117188 C 171.417969 189.664062 171.417969 189.207031 171.417969 188.734375 C 171.417969 188.269531 171.417969 187.804688 171.414062 187.324219 C 171.414062 186.335938 171.410156 185.347656 171.410156 184.359375 C 171.410156 182.84375 171.402344 181.328125 171.398438 179.8125 C 171.394531 178.855469 171.394531 177.898438 171.394531 176.941406 C 171.390625 176.484375 171.390625 176.03125 171.386719 175.558594 C 171.386719 175.140625 171.386719 174.71875 171.390625 174.285156 C 171.390625 173.914062 171.386719 173.539062 171.386719 173.15625 C 171.539062 171.761719 171.992188 171.507812 173.355469 171.386719 Z M 173.355469 171.386719 "/>
<path style=" stroke:none;fill-rule:nonzero;fill:rgb(98.039216%,98.823529%,98.823529%);fill-opacity:1;" d="M 169.113281 167.089844 C 169.859375 167.089844 169.859375 167.089844 170.621094 167.089844 C 171.035156 167.089844 171.035156 167.089844 171.460938 167.085938 C 172.398438 167.085938 173.335938 167.085938 174.273438 167.089844 C 174.949219 167.089844 175.625 167.089844 176.300781 167.089844 C 178.164062 167.085938 180.027344 167.089844 181.890625 167.089844 C 183.898438 167.09375 185.90625 167.089844 187.910156 167.089844 C 191.847656 167.089844 195.78125 167.089844 199.714844 167.09375 C 204.292969 167.097656 208.867188 167.097656 213.445312 167.097656 C 221.609375 167.097656 229.769531 167.101562 237.933594 167.105469 C 245.863281 167.113281 253.796875 167.117188 261.726562 167.113281 C 262.457031 167.113281 262.457031 167.113281 263.207031 167.113281 C 263.695312 167.113281 264.179688 167.113281 264.683594 167.113281 C 273.699219 167.113281 282.714844 167.117188 291.730469 167.121094 C 294.921875 167.121094 298.117188 167.121094 301.3125 167.121094 C 305.203125 167.121094 309.089844 167.125 312.980469 167.128906 C 314.96875 167.128906 316.953125 167.132812 318.941406 167.128906 C 320.757812 167.128906 322.570312 167.132812 324.386719 167.132812 C 325.046875 167.136719 325.707031 167.136719 326.367188 167.132812 C 327.257812 167.132812 328.148438 167.136719 329.039062 167.136719 C 329.535156 167.136719 330.03125 167.136719 330.542969 167.136719 C 331.640625 167.1875 331.640625 167.1875 332.03125 167.578125 C 332.070312 168.449219 332.078125 169.320312 332.078125 170.195312 C 332.078125 170.472656 332.082031 170.75 332.082031 171.039062 C 332.082031 171.980469 332.078125 172.925781 332.078125 173.867188 C 332.078125 174.546875 332.078125 175.226562 332.078125 175.90625 C 332.082031 177.777344 332.078125 179.652344 332.078125 181.527344 C 332.074219 183.542969 332.074219 185.5625 332.074219 187.578125 C 332.074219 191.078125 332.074219 194.578125 332.074219 198.074219 C 332.070312 203.132812 332.070312 208.191406 332.066406 213.25 C 332.066406 221.457031 332.0625 229.664062 332.0625 237.871094 C 332.058594 245.84375 332.054688 253.816406 332.050781 261.789062 C 332.050781 262.527344 332.050781 262.527344 332.050781 263.277344 C 332.050781 265.742188 332.050781 268.207031 332.050781 270.671875 C 332.046875 291.125 332.039062 311.578125 332.03125 332.03125 C 311.085938 332.039062 290.144531 332.046875 269.199219 332.050781 C 266.730469 332.050781 264.261719 332.050781 261.789062 332.050781 C 261.054688 332.054688 261.054688 332.054688 260.300781 332.054688 C 252.328125 332.054688 244.355469 332.058594 236.382812 332.0625 C 228.207031 332.066406 220.03125 332.066406 211.859375 332.066406 C 206.808594 332.070312 201.761719 332.070312 196.710938 332.074219 C 193.257812 332.074219 189.800781 332.074219 186.34375 332.074219 C 184.34375 332.074219 182.347656 332.074219 180.347656 332.078125 C 178.523438 332.078125 176.699219 332.078125 174.871094 332.078125 C 174.207031 332.078125 173.546875 332.078125 172.882812 332.078125 C 171.984375 332.082031 171.089844 332.082031 170.195312 332.078125 C 169.695312 332.078125 169.195312 332.078125 168.679688 332.078125 C 167.578125 332.03125 167.578125 332.03125 167.1875 331.640625 C 167.148438 330.773438 167.136719 329.90625 167.136719 329.039062 C 167.136719 328.761719 167.136719 328.484375 167.136719 328.199219 C 167.132812 327.261719 167.132812 326.324219 167.136719 325.386719 C 167.132812 324.710938 167.132812 324.035156 167.132812 323.359375 C 167.128906 321.496094 167.128906 319.632812 167.128906 317.769531 C 167.128906 315.761719 167.128906 313.757812 167.125 311.75 C 167.125 307.816406 167.121094 303.882812 167.121094 299.949219 C 167.121094 296.75 167.121094 293.554688 167.121094 290.359375 C 167.117188 281.308594 167.113281 272.257812 167.113281 263.207031 C 167.113281 262.71875 167.113281 262.230469 167.113281 261.726562 C 167.113281 261.238281 167.113281 260.746094 167.113281 260.242188 C 167.117188 252.3125 167.113281 244.382812 167.105469 236.453125 C 167.101562 228.324219 167.097656 220.191406 167.097656 212.058594 C 167.097656 207.488281 167.097656 202.921875 167.09375 198.351562 C 167.089844 194.460938 167.089844 190.570312 167.089844 186.679688 C 167.09375 184.695312 167.09375 182.707031 167.089844 180.722656 C 167.085938 178.90625 167.085938 177.089844 167.089844 175.273438 C 167.089844 174.613281 167.089844 173.953125 167.085938 173.292969 C 167.085938 172.402344 167.085938 171.511719 167.089844 170.621094 C 167.089844 170.125 167.089844 169.625 167.089844 169.113281 C 167.222656 167.535156 167.535156 167.222656 169.113281 167.089844 Z M 171.484375 172.265625 C 171.367188 173.195312 171.367188 173.195312 171.390625 174.285156 C 171.386719 174.707031 171.386719 175.125 171.386719 175.558594 C 171.386719 176.015625 171.390625 176.472656 171.394531 176.941406 C 171.394531 177.410156 171.394531 177.875 171.394531 178.355469 C 171.394531 179.34375 171.398438 180.328125 171.402344 181.316406 C 171.410156 182.832031 171.410156 184.347656 171.410156 185.863281 C 171.414062 186.820312 171.417969 187.777344 171.417969 188.734375 C 171.417969 189.191406 171.417969 189.648438 171.421875 190.117188 C 171.421875 190.539062 171.425781 190.957031 171.425781 191.390625 C 171.429688 191.761719 171.429688 192.132812 171.433594 192.515625 C 171.390625 193.351562 171.390625 193.351562 171.875 193.75 C 172.933594 193.789062 173.980469 193.800781 175.039062 193.792969 C 175.535156 193.792969 175.535156 193.792969 176.042969 193.792969 C 177.144531 193.792969 178.246094 193.792969 179.347656 193.789062 C 180.109375 193.789062 180.871094 193.785156 181.632812 193.785156 C 183.640625 193.785156 185.648438 193.78125 187.65625 193.777344 C 189.703125 193.773438 191.75 193.769531 193.796875 193.769531 C 197.820312 193.765625 201.839844 193.757812 205.859375 193.75 C 206.011719 193.425781 206.160156 193.101562 206.316406 192.765625 C 206.519531 192.34375 206.722656 191.917969 206.933594 191.484375 C 207.132812 191.0625 207.332031 190.640625 207.539062 190.207031 C 208.496094 188.558594 209.609375 187.847656 211.328125 187.109375 C 211.699219 186.933594 212.070312 186.753906 212.449219 186.570312 C 214.855469 186.089844 217.105469 186.320312 219.261719 187.523438 C 221.207031 188.875 222.308594 190.753906 223.046875 192.96875 C 223.308594 195.863281 223.300781 198.40625 221.484375 200.78125 C 219.464844 202.925781 217.925781 203.5625 214.988281 203.660156 C 212.050781 203.636719 209.800781 202.707031 207.664062 200.683594 C 207.101562 199.730469 206.65625 198.796875 206.210938 197.785156 C 206.070312 197.46875 205.933594 197.152344 205.789062 196.824219 C 205.683594 196.582031 205.578125 196.34375 205.46875 196.09375 C 201.152344 196.074219 196.835938 196.0625 192.523438 196.054688 C 190.519531 196.050781 188.515625 196.042969 186.511719 196.035156 C 184.578125 196.027344 182.644531 196.023438 180.714844 196.019531 C 179.972656 196.019531 179.234375 196.015625 178.496094 196.011719 C 177.464844 196.003906 176.433594 196.003906 175.402344 196.003906 C 175.09375 196.003906 174.785156 196 174.46875 195.996094 C 172.796875 195.941406 172.796875 195.941406 171.484375 196.875 C 171.410156 197.878906 171.382812 198.839844 171.394531 199.84375 C 171.394531 200.136719 171.394531 200.429688 171.394531 200.730469 C 171.394531 201.347656 171.398438 201.96875 171.402344 202.585938 C 171.410156 203.539062 171.410156 204.488281 171.410156 205.4375 C 171.414062 206.039062 171.417969 206.640625 171.417969 207.242188 C 171.417969 207.527344 171.417969 207.8125 171.421875 208.105469 C 171.316406 209.441406 171.316406 209.441406 171.875 210.546875 C 172.675781 210.59375 173.480469 210.617188 174.285156 210.628906 C 174.664062 210.632812 174.664062 210.632812 175.046875 210.640625 C 175.882812 210.652344 176.71875 210.660156 177.554688 210.671875 C 178.128906 210.679688 178.707031 210.6875 179.285156 210.695312 C 180.808594 210.714844 182.332031 210.734375 183.851562 210.753906 C 185.40625 210.773438 186.957031 210.796875 188.511719 210.816406 C 191.558594 210.859375 194.609375 210.898438 197.65625 210.9375 C 197.785156 211.582031 197.914062 212.226562 198.046875 212.890625 C 197.726562 212.890625 197.40625 212.886719 197.074219 212.886719 C 194.050781 212.871094 191.027344 212.859375 188.003906 212.851562 C 186.449219 212.847656 184.894531 212.839844 183.339844 212.832031 C 181.839844 212.824219 180.339844 212.820312 178.839844 212.816406 C 178.269531 212.816406 177.695312 212.8125 177.121094 212.808594 C 176.320312 212.800781 175.523438 212.800781 174.722656 212.800781 C 174.265625 212.800781 173.808594 212.796875 173.339844 212.796875 C 172.210938 212.78125 172.210938 212.78125 171.484375 213.671875 C 171.410156 214.621094 171.382812 215.527344 171.390625 216.480469 C 171.390625 216.769531 171.386719 217.058594 171.386719 217.355469 C 171.386719 218.3125 171.390625 219.269531 171.394531 220.230469 C 171.394531 220.890625 171.394531 221.554688 171.394531 222.21875 C 171.394531 223.609375 171.398438 225 171.402344 226.394531 C 171.410156 228.179688 171.414062 229.96875 171.410156 231.753906 C 171.410156 233.125 171.414062 234.496094 171.417969 235.867188 C 171.417969 236.523438 171.417969 237.183594 171.417969 237.84375 C 171.421875 238.761719 171.421875 239.683594 171.425781 240.601562 C 171.425781 240.878906 171.425781 241.152344 171.425781 241.433594 C 171.328125 242.703125 171.328125 242.703125 171.875 243.75 C 172.703125 243.789062 173.535156 243.800781 174.363281 243.800781 C 174.757812 243.804688 174.757812 243.804688 175.160156 243.804688 C 176.050781 243.808594 176.9375 243.808594 177.828125 243.808594 C 178.460938 243.808594 179.097656 243.808594 179.730469 243.8125 C 181.460938 243.8125 183.191406 243.816406 184.921875 243.816406 C 186 243.816406 187.082031 243.816406 188.164062 243.816406 C 191.941406 243.820312 195.71875 243.824219 199.496094 243.824219 C 203.011719 243.820312 206.523438 243.828125 210.039062 243.832031 C 213.058594 243.835938 216.078125 243.839844 219.097656 243.839844 C 220.898438 243.839844 222.703125 243.839844 224.503906 243.84375 C 226.203125 243.847656 227.902344 243.847656 229.601562 243.84375 C 230.222656 243.84375 230.839844 243.847656 231.460938 243.847656 C 240.289062 243.882812 240.289062 243.882812 247.824219 239.746094 C 251.617188 235.511719 251.292969 229.960938 251.253906 224.625 C 251.246094 223.597656 251.246094 222.570312 251.246094 221.542969 C 251.242188 220.886719 251.238281 220.234375 251.238281 219.578125 C 251.238281 219.117188 251.238281 219.117188 251.234375 218.648438 C 251.257812 217.085938 251.257812 217.085938 250.78125 215.625 C 250.3125 215.464844 249.847656 215.300781 249.363281 215.136719 C 247.171875 214.339844 245.582031 213.238281 244.390625 211.199219 C 243.207031 208.558594 243.140625 206.769531 244.105469 204.085938 C 245.183594 201.601562 246.394531 200.363281 248.828125 199.21875 C 249.140625 199.050781 249.457031 198.878906 249.78125 198.707031 C 252.339844 198.019531 254.628906 198.28125 257 199.457031 C 258.875 200.710938 259.882812 202.425781 260.691406 204.492188 C 261.191406 207.277344 261.167969 209.613281 259.765625 212.109375 C 258.246094 214.167969 256.695312 215.15625 254.226562 215.777344 C 253.992188 215.855469 253.757812 215.933594 253.515625 216.015625 C 253.070312 216.90625 253.070312 217.410156 253.0625 218.402344 C 253.058594 218.734375 253.054688 219.0625 253.050781 219.40625 C 253.046875 219.765625 253.046875 220.125 253.042969 220.496094 C 253.03125 221.257812 253.019531 222.023438 253.007812 222.785156 C 252.992188 223.984375 252.980469 225.1875 252.96875 226.390625 C 252.957031 227.550781 252.9375 228.710938 252.921875 229.871094 C 252.917969 230.222656 252.917969 230.578125 252.917969 230.941406 C 252.839844 235.09375 251.773438 238.421875 248.828125 241.40625 C 244.394531 245.234375 239.886719 245.484375 234.273438 245.46875 C 233.597656 245.472656 232.921875 245.472656 232.242188 245.476562 C 230.792969 245.484375 229.34375 245.484375 227.894531 245.484375 C 225.601562 245.484375 223.3125 245.492188 221.019531 245.5 C 216.574219 245.515625 212.128906 245.523438 207.683594 245.53125 C 202.015625 245.539062 196.347656 245.550781 190.675781 245.570312 C 188.398438 245.578125 186.117188 245.582031 183.839844 245.585938 C 182.425781 245.585938 181.011719 245.589844 179.597656 245.59375 C 178.941406 245.597656 178.28125 245.597656 177.625 245.59375 C 176.730469 245.59375 175.835938 245.597656 174.941406 245.601562 C 174.441406 245.601562 173.941406 245.601562 173.425781 245.605469 C 172.21875 245.582031 172.21875 245.582031 171.484375 246.484375 C 171.367188 247.300781 171.367188 247.300781 171.390625 248.253906 C 171.386719 248.617188 171.386719 248.984375 171.386719 249.363281 C 171.386719 249.757812 171.390625 250.15625 171.394531 250.5625 C 171.394531 250.96875 171.394531 251.375 171.394531 251.792969 C 171.394531 252.648438 171.398438 253.507812 171.402344 254.367188 C 171.410156 255.683594 171.410156 257.003906 171.410156 258.320312 C 171.414062 259.152344 171.417969 259.984375 171.417969 260.816406 C 171.417969 261.214844 171.417969 261.609375 171.421875 262.019531 C 171.421875 262.386719 171.425781 262.75 171.425781 263.125 C 171.429688 263.449219 171.429688 263.773438 171.433594 264.105469 C 171.402344 264.847656 171.402344 264.847656 171.875 265.234375 C 172.871094 265.273438 173.859375 265.285156 174.859375 265.28125 C 175.175781 265.28125 175.492188 265.28125 175.816406 265.28125 C 176.882812 265.28125 177.953125 265.28125 179.019531 265.277344 C 179.78125 265.277344 180.542969 265.277344 181.304688 265.277344 C 183.382812 265.277344 185.457031 265.277344 187.53125 265.273438 C 189.699219 265.273438 191.867188 265.269531 194.03125 265.269531 C 198.136719 265.269531 202.246094 265.265625 206.351562 265.261719 C 211.023438 265.257812 215.695312 265.257812 220.371094 265.253906 C 229.988281 265.25 239.601562 265.242188 249.21875 265.234375 C 249.363281 264.914062 249.511719 264.589844 249.660156 264.257812 C 249.859375 263.835938 250.058594 263.414062 250.265625 262.980469 C 250.457031 262.5625 250.652344 262.144531 250.851562 261.714844 C 252.171875 259.550781 254.300781 258.59375 256.640625 257.8125 C 259.105469 257.5625 261.167969 258.125 263.28125 259.375 C 265.382812 261.441406 266.515625 263.769531 266.550781 266.722656 C 266.503906 269.21875 266.003906 271.019531 264.285156 272.863281 C 262.070312 274.839844 259.96875 275.199219 257.085938 275.148438 C 254.6875 274.855469 252.769531 273.820312 251.023438 272.167969 C 250.460938 271.214844 250.015625 270.28125 249.570312 269.269531 C 249.429688 268.953125 249.292969 268.636719 249.148438 268.308594 C 249.042969 268.066406 248.9375 267.828125 248.828125 267.578125 C 238.859375 267.558594 228.890625 267.546875 218.921875 267.539062 C 214.292969 267.535156 209.664062 267.527344 205.035156 267.519531 C 201.003906 267.511719 196.96875 267.507812 192.9375 267.503906 C 190.800781 267.503906 188.664062 267.5 186.527344 267.496094 C 184.519531 267.492188 182.507812 267.488281 180.5 267.488281 C 179.761719 267.488281 179.023438 267.488281 178.28125 267.484375 C 177.277344 267.480469 176.273438 267.480469 175.265625 267.484375 C 174.96875 267.480469 174.675781 267.480469 174.371094 267.476562 C 172.75 267.433594 172.75 267.433594 171.484375 268.359375 C 171.367188 269.566406 171.367188 269.566406 171.394531 270.984375 C 171.394531 271.242188 171.394531 271.5 171.394531 271.765625 C 171.394531 272.3125 171.398438 272.859375 171.402344 273.402344 C 171.410156 274.242188 171.410156 275.078125 171.410156 275.917969 C 171.171875 278.382812 171.171875 278.382812 171.875 280.46875 C 172.5625 280.507812 173.253906 280.519531 173.941406 280.523438 C 174.613281 280.527344 174.613281 280.527344 175.300781 280.527344 C 175.796875 280.53125 176.292969 280.53125 176.804688 280.53125 C 177.332031 280.53125 177.855469 280.535156 178.378906 280.535156 C 179.511719 280.539062 180.648438 280.542969 181.78125 280.546875 C 183.574219 280.550781 185.371094 280.558594 187.164062 280.566406 C 192.269531 280.589844 197.371094 280.613281 202.476562 280.625 C 205.292969 280.632812 208.109375 280.644531 210.925781 280.660156 C 212.417969 280.667969 213.90625 280.675781 215.398438 280.675781 C 216.800781 280.675781 218.207031 280.683594 219.609375 280.691406 C 220.367188 280.695312 221.121094 280.695312 221.878906 280.691406 C 225.832031 280.730469 229.726562 281.308594 232.8125 283.984375 C 237.046875 288.765625 236.894531 293.894531 236.90625 299.941406 C 236.910156 300.730469 236.917969 301.519531 236.921875 302.3125 C 236.941406 304.382812 236.949219 306.449219 236.957031 308.519531 C 236.972656 311.84375 236.996094 315.167969 237.019531 318.496094 C 237.027344 319.65625 237.03125 320.816406 237.035156 321.980469 C 237.039062 322.6875 237.042969 323.390625 237.046875 324.097656 C 237.046875 324.421875 237.046875 324.746094 237.050781 325.082031 C 236.921875 326.527344 236.921875 326.527344 237.5 327.734375 C 238.570312 327.773438 239.628906 327.785156 240.699219 327.777344 C 241.035156 327.777344 241.371094 327.777344 241.714844 327.777344 C 242.828125 327.777344 243.945312 327.777344 245.058594 327.773438 C 245.828125 327.773438 246.597656 327.769531 247.367188 327.769531 C 249.398438 327.769531 251.429688 327.765625 253.460938 327.761719 C 255.898438 327.757812 258.332031 327.753906 260.765625 327.753906 C 264.46875 327.75 268.171875 327.742188 271.875 327.734375 C 272.003906 320.128906 272.132812 312.523438 272.265625 304.6875 C 272.78125 304.558594 273.296875 304.429688 273.828125 304.296875 C 273.832031 304.585938 273.835938 304.871094 273.839844 305.167969 C 273.878906 307.875 273.917969 310.585938 273.960938 313.292969 C 273.980469 314.683594 274.003906 316.074219 274.023438 317.46875 C 274.042969 319.066406 274.070312 320.664062 274.09375 322.265625 C 274.105469 323.015625 274.105469 323.015625 274.113281 323.785156 C 274.121094 324.246094 274.128906 324.707031 274.136719 325.183594 C 274.144531 325.59375 274.152344 326 274.15625 326.421875 C 274.117188 327.328125 274.117188 327.328125 274.609375 327.734375 C 275.476562 327.769531 276.34375 327.777344 277.210938 327.773438 C 277.46875 327.773438 277.730469 327.769531 277.996094 327.769531 C 278.828125 327.769531 279.660156 327.765625 280.492188 327.757812 C 281.054688 327.757812 281.617188 327.753906 282.179688 327.753906 C 283.5625 327.75 284.945312 327.742188 286.328125 327.734375 C 286.335938 323.878906 286.34375 320.019531 286.347656 316.164062 C 286.351562 314.371094 286.351562 312.582031 286.359375 310.789062 C 286.363281 309.0625 286.363281 307.335938 286.363281 305.609375 C 286.367188 304.949219 286.367188 304.289062 286.371094 303.628906 C 286.371094 302.707031 286.371094 301.78125 286.371094 300.859375 C 286.375 300.585938 286.375 300.3125 286.375 300.027344 C 286.390625 298.597656 286.390625 298.597656 285.9375 297.265625 C 285.460938 297.097656 284.988281 296.925781 284.496094 296.753906 C 282.160156 295.90625 280.648438 294.703125 279.539062 292.457031 C 278.671875 290.214844 278.515625 288.585938 279.324219 286.332031 C 280.519531 283.660156 281.679688 282.054688 284.375 280.859375 C 284.632812 280.730469 284.890625 280.601562 285.15625 280.46875 C 287.757812 279.839844 289.722656 280 292.054688 281.339844 C 294.0625 282.855469 295.488281 284.613281 295.898438 287.136719 C 295.960938 290.078125 295.660156 292.871094 293.632812 295.152344 C 292.507812 296.085938 291.214844 296.644531 289.886719 297.234375 C 289 297.585938 289 297.585938 288.671875 298.4375 C 288.632812 299.347656 288.621094 300.261719 288.621094 301.171875 C 288.621094 301.453125 288.621094 301.738281 288.621094 302.027344 C 288.617188 302.957031 288.617188 303.890625 288.621094 304.824219 C 288.621094 305.46875 288.621094 306.117188 288.617188 306.761719 C 288.617188 308.117188 288.617188 309.46875 288.621094 310.824219 C 288.625 312.566406 288.621094 314.304688 288.621094 316.046875 C 288.617188 317.378906 288.617188 318.714844 288.621094 320.046875 C 288.621094 320.6875 288.621094 321.332031 288.617188 321.972656 C 288.617188 322.867188 288.621094 323.761719 288.621094 324.660156 C 288.621094 325.167969 288.621094 325.679688 288.621094 326.203125 C 288.542969 327.300781 288.542969 327.300781 289.0625 327.734375 C 289.84375 327.769531 290.625 327.777344 291.40625 327.773438 C 292.046875 327.769531 292.046875 327.769531 292.703125 327.769531 C 293.25 327.765625 293.796875 327.761719 294.359375 327.757812 C 296.957031 327.746094 296.957031 327.746094 299.609375 327.734375 C 299.738281 322.0625 299.867188 316.390625 300 310.546875 C 300.515625 310.417969 301.03125 310.289062 301.5625 310.15625 C 301.566406 310.371094 301.570312 310.585938 301.574219 310.804688 C 301.617188 313.03125 301.660156 315.253906 301.707031 317.476562 C 301.726562 318.308594 301.742188 319.140625 301.757812 319.972656 C 301.777344 321.164062 301.804688 322.355469 301.828125 323.546875 C 301.839844 324.105469 301.839844 324.105469 301.847656 324.679688 C 301.855469 325.023438 301.863281 325.367188 301.871094 325.722656 C 301.882812 326.179688 301.882812 326.179688 301.890625 326.644531 C 301.878906 327.351562 301.878906 327.351562 302.34375 327.734375 C 303.132812 327.769531 303.925781 327.78125 304.71875 327.777344 C 305.226562 327.777344 305.734375 327.777344 306.257812 327.777344 C 306.816406 327.777344 307.378906 327.773438 307.9375 327.773438 C 308.503906 327.773438 309.074219 327.769531 309.640625 327.769531 C 311.140625 327.769531 312.640625 327.765625 314.140625 327.761719 C 315.667969 327.757812 317.199219 327.753906 318.726562 327.753906 C 321.730469 327.75 324.730469 327.742188 327.734375 327.734375 C 327.742188 314.355469 327.75 300.976562 327.753906 287.59375 C 327.753906 286.015625 327.753906 284.441406 327.753906 282.863281 C 327.757812 282.546875 327.757812 282.234375 327.757812 281.910156 C 327.757812 276.816406 327.761719 271.722656 327.765625 266.628906 C 327.769531 261.40625 327.769531 256.183594 327.769531 250.960938 C 327.773438 247.738281 327.773438 244.511719 327.777344 241.289062 C 327.777344 239.078125 327.777344 236.871094 327.777344 234.660156 C 327.777344 233.386719 327.777344 232.109375 327.78125 230.832031 C 327.78125 229.453125 327.78125 228.074219 327.78125 226.691406 C 327.78125 226.285156 327.785156 225.878906 327.785156 225.457031 C 327.785156 225.089844 327.785156 224.722656 327.78125 224.34375 C 327.78125 224.027344 327.78125 223.707031 327.78125 223.378906 C 327.8125 222.648438 327.8125 222.648438 327.34375 222.265625 C 326.328125 222.21875 325.320312 222.199219 324.304688 222.195312 C 323.828125 222.191406 323.828125 222.191406 323.339844 222.1875 C 322.285156 222.179688 321.226562 222.175781 320.167969 222.171875 C 319.808594 222.171875 319.449219 222.167969 319.078125 222.167969 C 317.171875 222.160156 315.265625 222.152344 313.359375 222.148438 C 311.386719 222.144531 309.414062 222.132812 307.441406 222.117188 C 305.929688 222.105469 304.414062 222.105469 302.902344 222.101562 C 302.175781 222.101562 301.445312 222.097656 300.71875 222.089844 C 299.703125 222.078125 298.6875 222.078125 297.671875 222.082031 C 297.367188 222.078125 297.066406 222.070312 296.753906 222.066406 C 295.085938 222.074219 295.085938 222.074219 293.773438 223.011719 C 293.382812 223.78125 293.011719 224.546875 292.675781 225.339844 C 291.835938 227.078125 290.660156 228.226562 289.0625 229.296875 C 286.449219 230.167969 283.324219 230.175781 280.746094 229.199219 C 278.644531 227.972656 277.175781 226.703125 276.375 224.367188 C 275.714844 221.359375 276.058594 219.152344 277.574219 216.453125 C 279.0625 214.207031 281.433594 213.167969 283.984375 212.5 C 286.378906 212.3125 288.359375 212.851562 290.328125 214.222656 C 291.695312 215.460938 292.75 217.015625 293.164062 218.820312 C 293.230469 219.054688 293.292969 219.289062 293.359375 219.53125 C 294.601562 220.152344 295.949219 219.972656 297.3125 219.964844 C 297.640625 219.964844 297.96875 219.964844 298.304688 219.964844 C 299.394531 219.964844 300.480469 219.964844 301.566406 219.960938 C 302.316406 219.960938 303.070312 219.957031 303.820312 219.957031 C 305.804688 219.957031 307.785156 219.953125 309.765625 219.949219 C 311.789062 219.945312 313.808594 219.941406 315.832031 219.941406 C 319.796875 219.9375 323.765625 219.929688 327.734375 219.921875 C 327.746094 217.035156 327.75 214.152344 327.753906 211.265625 C 327.757812 210.28125 327.761719 209.300781 327.765625 208.316406 C 327.769531 206.910156 327.769531 205.5 327.773438 204.089844 C 327.773438 203.648438 327.777344 203.207031 327.777344 202.75 C 327.777344 202.34375 327.777344 201.9375 327.777344 201.519531 C 327.78125 201.160156 327.78125 200.796875 327.78125 200.425781 C 327.824219 199.613281 327.824219 199.613281 327.34375 199.21875 C 326.589844 199.171875 325.832031 199.148438 325.078125 199.136719 C 324.589844 199.128906 324.105469 199.121094 323.605469 199.113281 C 323.074219 199.109375 322.539062 199.101562 322.007812 199.09375 C 321.464844 199.085938 320.921875 199.078125 320.378906 199.070312 C 318.949219 199.050781 317.519531 199.03125 316.089844 199.011719 C 314.632812 198.992188 313.171875 198.96875 311.714844 198.949219 C 308.851562 198.90625 305.988281 198.867188 303.125 198.828125 C 303.253906 198.3125 303.382812 197.796875 303.515625 197.265625 C 315.503906 197.070312 315.503906 197.070312 327.734375 196.875 C 327.746094 192.441406 327.746094 192.441406 327.753906 188.007812 C 327.753906 186.199219 327.757812 184.394531 327.765625 182.585938 C 327.769531 181.128906 327.769531 179.671875 327.769531 178.214844 C 327.773438 177.660156 327.773438 177.101562 327.777344 176.546875 C 327.777344 175.769531 327.777344 174.992188 327.777344 174.214844 C 327.78125 173.769531 327.78125 173.328125 327.78125 172.871094 C 327.847656 171.902344 327.847656 171.902344 327.34375 171.484375 C 326.523438 171.445312 325.699219 171.433594 324.875 171.433594 C 324.484375 171.433594 324.484375 171.433594 324.082031 171.433594 C 323.191406 171.429688 322.304688 171.429688 321.414062 171.433594 C 320.773438 171.429688 320.136719 171.429688 319.496094 171.429688 C 317.730469 171.425781 315.964844 171.425781 314.199219 171.425781 C 312.296875 171.425781 310.398438 171.425781 308.496094 171.421875 C 304.769531 171.421875 301.042969 171.417969 297.3125 171.417969 C 294.285156 171.417969 291.257812 171.417969 288.230469 171.417969 C 279.652344 171.414062 271.078125 171.410156 262.503906 171.410156 C 262.039062 171.410156 261.578125 171.410156 261.101562 171.410156 C 260.636719 171.410156 260.175781 171.410156 259.695312 171.410156 C 252.183594 171.414062 244.671875 171.410156 237.15625 171.402344 C 229.453125 171.398438 221.75 171.394531 214.042969 171.394531 C 209.714844 171.394531 205.386719 171.394531 201.054688 171.390625 C 197.371094 171.386719 193.683594 171.386719 190 171.386719 C 188.117188 171.390625 186.234375 171.390625 184.351562 171.386719 C 182.632812 171.382812 180.910156 171.382812 179.191406 171.386719 C 178.566406 171.386719 177.941406 171.386719 177.316406 171.382812 C 176.472656 171.382812 175.628906 171.382812 174.78125 171.386719 C 174.3125 171.386719 173.839844 171.386719 173.355469 171.386719 C 172.210938 171.371094 172.210938 171.371094 171.484375 172.265625 Z M 171.484375 172.265625 "/>
<path style=" stroke:none;fill-rule:nonzero;fill:rgb(36.862745%,43.137255%,49.803922%);fill-opacity:1;" d="M 174.378906 282.707031 C 174.828125 282.703125 175.277344 282.703125 175.742188 282.699219 C 176.234375 282.699219 176.730469 282.699219 177.242188 282.699219 C 177.765625 282.695312 178.289062 282.695312 178.816406 282.691406 C 180.242188 282.683594 181.671875 282.683594 183.101562 282.683594 C 183.996094 282.679688 184.886719 282.679688 185.78125 282.675781 C 188.902344 282.671875 192.019531 282.667969 195.140625 282.667969 C 198.042969 282.667969 200.945312 282.660156 203.847656 282.648438 C 206.34375 282.636719 208.839844 282.632812 211.332031 282.632812 C 212.820312 282.632812 214.3125 282.632812 215.800781 282.625 C 217.203125 282.617188 218.605469 282.617188 220.007812 282.621094 C 220.761719 282.621094 221.519531 282.617188 222.273438 282.609375 C 225.675781 282.632812 228.28125 283.257812 231.175781 285.058594 C 234.105469 288.070312 234.890625 291.324219 234.855469 295.40625 C 234.855469 295.757812 234.855469 296.109375 234.855469 296.46875 C 234.855469 297.621094 234.847656 298.773438 234.84375 299.925781 C 234.839844 300.726562 234.839844 301.527344 234.839844 302.332031 C 234.835938 304.433594 234.828125 306.539062 234.820312 308.644531 C 234.8125 310.792969 234.808594 312.945312 234.804688 315.09375 C 234.796875 319.308594 234.78125 323.519531 234.765625 327.734375 C 226.574219 327.742188 218.378906 327.75 210.1875 327.753906 C 206.382812 327.757812 202.578125 327.757812 198.773438 327.765625 C 195.460938 327.769531 192.144531 327.769531 188.832031 327.769531 C 187.074219 327.773438 185.320312 327.773438 183.5625 327.777344 C 181.914062 327.777344 180.261719 327.777344 178.609375 327.777344 C 178.003906 327.777344 177.394531 327.78125 176.789062 327.78125 C 175.960938 327.78125 175.136719 327.78125 174.308594 327.78125 C 173.847656 327.78125 173.382812 327.78125 172.90625 327.78125 C 171.875 327.734375 171.875 327.734375 171.484375 327.34375 C 171.445312 326.484375 171.429688 325.625 171.425781 324.765625 C 171.425781 324.363281 171.425781 324.363281 171.421875 323.949219 C 171.421875 323.054688 171.417969 322.160156 171.417969 321.265625 C 171.417969 320.648438 171.417969 320.027344 171.414062 319.40625 C 171.414062 318.109375 171.410156 316.808594 171.410156 315.507812 C 171.410156 313.839844 171.40625 312.171875 171.398438 310.5 C 171.394531 309.222656 171.394531 307.941406 171.394531 306.664062 C 171.394531 306.046875 171.394531 305.433594 171.390625 304.816406 C 171.386719 303.957031 171.386719 303.097656 171.390625 302.238281 C 171.386719 301.503906 171.386719 301.503906 171.386719 300.753906 C 171.484375 299.609375 171.484375 299.609375 172.265625 298.828125 C 172.996094 298.734375 172.996094 298.734375 173.894531 298.738281 C 174.402344 298.738281 174.402344 298.738281 174.914062 298.738281 C 175.277344 298.742188 175.640625 298.746094 176.015625 298.75 C 176.386719 298.753906 176.757812 298.753906 177.144531 298.753906 C 178.332031 298.757812 179.523438 298.769531 180.710938 298.78125 C 181.519531 298.785156 182.324219 298.785156 183.128906 298.789062 C 185.109375 298.796875 187.085938 298.8125 189.0625 298.828125 C 189.210938 299.148438 189.363281 299.472656 189.519531 299.804688 C 189.71875 300.226562 189.921875 300.648438 190.132812 301.082031 C 190.332031 301.5 190.527344 301.917969 190.734375 302.347656 C 191.894531 304.359375 193.523438 305.523438 195.703125 306.25 C 196.589844 306.308594 197.476562 306.335938 198.363281 306.347656 C 199.070312 306.363281 199.070312 306.363281 199.789062 306.378906 C 202.089844 306.164062 203.539062 305.265625 205.003906 303.515625 C 205.234375 303.25 205.460938 302.984375 205.695312 302.710938 C 207.21875 300.628906 206.832031 297.761719 206.640625 295.3125 C 206.003906 292.867188 204.414062 291.222656 202.34375 289.84375 C 200.082031 288.785156 198.03125 288.652344 195.703125 289.476562 C 192.070312 291.117188 190.875 292.914062 189.453125 296.484375 C 186.957031 296.496094 184.460938 296.5 181.964844 296.503906 C 181.113281 296.507812 180.265625 296.511719 179.414062 296.515625 C 178.195312 296.519531 176.976562 296.519531 175.757812 296.523438 C 175.183594 296.527344 175.183594 296.527344 174.597656 296.527344 C 174.246094 296.527344 173.894531 296.527344 173.53125 296.527344 C 173.222656 296.53125 172.910156 296.53125 172.589844 296.53125 C 171.875 296.484375 171.875 296.484375 171.484375 296.09375 C 171.441406 295.175781 171.421875 294.269531 171.417969 293.347656 C 171.417969 293.074219 171.417969 292.796875 171.414062 292.515625 C 171.414062 291.933594 171.410156 291.347656 171.410156 290.765625 C 171.410156 289.875 171.402344 288.980469 171.398438 288.085938 C 171.394531 287.519531 171.394531 286.957031 171.394531 286.390625 C 171.390625 286.121094 171.390625 285.855469 171.386719 285.578125 C 171.398438 283.117188 172 282.714844 174.378906 282.707031 Z M 174.378906 282.707031 "/>
</g>
</svg>
